<?xml version="1.0" encoding="utf-8"?>
<!-- Generator: Adobe Illustrator 27.1.1, SVG Export Plug-In . SVG Version: 6.00 Build 0)  -->
<svg version="1.1" xmlns="http://www.w3.org/2000/svg" xmlns:xlink="http://www.w3.org/1999/xlink" x="0px" y="0px"
	 viewBox="0 0 3072.01 517.14" style="enable-background:new 0 0 3072.01 517.14;" xml:space="preserve">
<style type="text/css">
	.st0{fill:#C41230;}
	.st1{fill:#FFFFFF;}
	.st2{fill:none;stroke:#000000;stroke-width:7;}
	.st3{fill:none;stroke:#000000;stroke-width:1.4255;}
	.st4{fill:none;stroke:#000000;stroke-width:1.399;}
	.st5{fill:none;stroke:#231F20;stroke-width:4.4454;}
	.st6{fill:#231F20;}
</style>
<g id="Layer_1">
	<g>
		<g>
			<path class="st0" d="M217.24,22.16L21.77,22.21l-0.41,156.36c0,191.7,192.22,313.8,194.16,315.03l0.62,0.39
				c0.49-0.04,1.71-0.84,1.71-0.84c32.67-21.37,195.6-136.96,195.6-313.6l0.05-157.03C413.09,22.11,217.24,22.16,217.24,22.16
				L217.24,22.16L217.24,22.16z M412.36,160.72H25.27v-22.55h387.09V160.72L412.36,160.72z"/>
			<path d="M92.39,41.66c12.47-5.35,26.46-1.53,40.2-2.29c3.56,0.76,8.9-1.78,11.19,2.04c0,4.07,0,7.88,0.25,11.96
				c1.27,2.8,5.34,0.51,7.64,2.04c1.27,0.76,2.8,1.53,3.06,3.05c0.76,1.78,0.26,3.81-0.76,5.6c-2.55,2.8-5.85,1.79-9.16,2.55
				l-1.02,1.52c0.51,7.38-1.52,13.99,0,21.11c-0.25,1.53-0.76,3.56,1.02,4.58c3.56,0,7.13,0,9.67,2.29c1.02,1.79,1.02,4.07,0.51,6.1
				c-1.53,7.64-13.23-1.02-11.97,7.89c0,3.31,0.76,7.88-0.5,10.94c-13.74,0-27.73-1.02-40.71-0.26c-2.29,2.04-5.35,3.31-8.65,3.57
				c-2.8-0.51-4.84-2.04-7.12-3.57c-12.47-0.51-24.69-0.51-36.65-0.76c-3.81-3.31-1.01-8.66-2.28-13.49
				c-2.04-2.28-5.09-0.51-7.38-1.78c-1.78-0.25-2.29-2.03-3.31-3.3c0-2.8,0-5.1,2.04-6.87c2.03-1.53,4.83-1.27,7.38-1.53l1.27-1.27
				c-0.76-8.39,1.27-16.28-0.51-25.18c-1.27-1.79-3.56-0.26-5.09-1.53c-2.29-0.51-4.57-1.27-5.34-3.82
				c-0.5-2.04-1.01-4.07,1.03-5.85c2.8-3.05,7.63,0.51,10.18-2.55l1.02-12.21c2.04-3.56,6.88-1.78,10.43-1.78
				c6.1-1.27,13.74-0.26,20.36,0C83.74,39.11,88.32,39.88,92.39,41.66L92.39,41.66L92.39,41.66L92.39,41.66z"/>
			<path d="M1172.24,100.77c-4.02-8.76-10.09-15.2-20.44-17.47v-5.09c6.42,0,27.82,0.78,32.72,0.78c4.55,0,23.89-0.78,30.49-0.78
				v4.98c-5.86,1.12-12.58,4.4-12.58,10.4c0,4.28,2.62,10.15,7.56,21.18l46.94,106.65l44.31-106.82c3.51-8.62,6.03-15.25,6.03-20.36
				c0-5.68-5.23-9.54-12.56-11.05v-4.98c5.87,0,20.12,0.78,24.66,0.78c4.12,0,21.07-0.78,27.52-0.78v5.09
				c-11.07,2.97-17.81,9.09-23.96,23.51l-65.26,153.93h-13.72L1172.24,100.77L1172.24,100.77L1172.24,100.77z"/>
			<path d="M538.71,254.83c8.5-1.93,14.51-5.77,14.51-15.45V98.31c0-9.27-5.6-13.16-14.51-15.48v-5.02c4.44,0,23.74,0.76,28.39,0.76
				c5.41,0,25.87-0.76,30.34-0.76v5.02c-8.51,1.96-14.88,5.81-14.88,15.48v58.94H687.7V98.31c0-9.67-5.55-13.52-14.44-15.48v-5.02
				c4.42,0,24.5,0.76,29.92,0.76c4.63,0,24.33-0.76,28.77-0.76v5.02c-8.52,1.96-14.88,5.81-14.88,15.48v141.08
				c0,9.27,5.95,13.12,14.88,15.45v4.67c-4.45,0-24.14-0.39-28.77-0.39c-5.42,0-25.49,0.39-29.92,0.39v-4.67
				c8.46-1.93,14.44-5.77,14.44-15.45V172.7H582.57v66.68c0,9.68,5.98,13.12,14.88,15.45v4.67c-4.46,0-24.92-0.39-30.34-0.39
				c-4.65,0-23.95,0.39-28.39,0.39V254.83L538.71,254.83L538.71,254.83z M760.82,254.83c11.44-2.7,17.76-10.12,21.99-20.08
				l58.11-139.9c2.45-5.8,5.36-17.68,5.36-17.68h16.25c0,0,2.92,11.93,5.36,17.71l61.45,140.26c4.36,9.65,9.09,16.62,21.33,19.7
				l-0.03,4.67c-6.67,0-27.35-0.39-32.04-0.39c-4.7,0-24.43,0.39-31.09,0.39l0.03-4.67c8.96-2.2,11.77-6.77,11.77-11.15
				c0-3.75-1.53-7.95-3.39-12.34l-13.02-29.7l-68.09-0.03l-11.92,29.89c-1.37,3.42-2.97,8.3-2.97,11.56c0,5,2.63,9.08,12.8,11.77
				l-0.01,4.67c-6.03,0-21.86-0.39-25.61-0.39l-26.29,0.39L760.82,254.83L760.82,254.83L760.82,254.83z M876.53,186.92l-28.92-67.37
				l-26.91,67.37H876.53L876.53,186.92z M760.82,254.83c11.44-2.7,17.76-10.12,21.99-20.08l58.11-139.9
				c2.45-5.8,5.36-17.68,5.36-17.68h16.25c0,0,2.92,11.93,5.36,17.71l61.45,140.26c4.36,9.65,9.09,16.62,21.33,19.7l-0.03,4.67
				c-6.67,0-27.35-0.39-32.04-0.39c-4.7,0-24.43,0.39-31.09,0.39l0.03-4.67c8.96-2.2,11.77-6.77,11.77-11.15
				c0-3.75-1.53-7.95-3.39-12.34l-13.02-29.7l-68.09-0.03l-11.92,29.89c-1.37,3.42-2.97,8.3-2.97,11.56c0,5,2.63,9.08,12.8,11.77
				l-0.01,4.67c-6.03,0-21.86-0.39-25.61-0.39l-26.29,0.39L760.82,254.83L760.82,254.83L760.82,254.83z M876.53,186.92l-28.92-67.37
				l-26.91,67.37H876.53L876.53,186.92z M1336.9,254.83c11.46-2.7,17.77-10.12,21.92-20.08l58.18-139.9
				c2.43-5.8,5.33-17.68,5.33-17.68h16.28c0,0,2.9,11.93,5.33,17.71l61.41,140.26c4.38,9.65,9.14,16.62,21.37,19.7l-0.05,4.67
				c-6.64,0-27.32-0.39-32.04-0.39c-4.7,0-24.44,0.39-31.09,0.39l0.07-4.67c8.93-2.2,11.74-6.77,11.74-11.15
				c0-3.75-1.55-7.95-3.41-12.34l-13.01-29.7l-68.11-0.03l-11.89,29.89c-1.38,3.42-2.95,8.3-2.95,11.56c0,5,2.62,9.08,12.77,11.77
				l-0.02,4.67c-6.01,0-21.37-0.39-25.08-0.39l-26.8,0.39L1336.9,254.83L1336.9,254.83L1336.9,254.83z M1452.61,186.92l-28.89-67.37
				l-26.94,67.37H1452.61L1452.61,186.92z M1756.96,254.83c10.92-1.93,16.88-6.25,16.88-16.22V98.31c0-9.69-5.92-13.52-16.42-15.48
				v-5.02c6.05,0,26.1,0.76,31.49,0.76c8.91,0,34.04-1.89,53.25-1.89c64.68,0,103.92,36.06,103.92,91
				c0,53.38-40.83,92.96-107.53,92.96c-19.21,0-42.53-1.52-51.45-1.52c-5.4,0-24.08,0.77-30.14,0.77V254.83L1756.96,254.83
				L1756.96,254.83z M1803.22,245.57c6.59,1.14,18.76,1.9,28.38,1.9c54.28,0,82.6-32.65,82.6-78.28c0-47.29-29.83-80.56-80.61-80.56
				c-10.4,0-23.39,0.77-30.37,1.93V245.57L1803.22,245.57L1803.22,245.57z"/>
			<path d="M1023.44,238.09c0,9.35,5.91,14.43,16.86,16.75v5.04c-6.07,0-25.87-0.78-31.54-0.78c-4.85,0-24.25,0.78-30.33,0.78v-5.04
				c10.14-1.93,16.11-7,16.11-16.75V98.75c0-8.55-4.62-13.98-16.08-15.92v-5.02c6.09,0,25.26,0.76,30.69,0.76
				c8.87,0,34.09-1.45,44.02-1.45c43.49,0,67.69,17.96,67.69,48.72c0,24.23-18.07,40.59-45.76,47.34c0,0,6.25,3.67,12.57,11.04
				c7.71,9.01,29.54,39.34,38.12,49.71c8.54,10.38,19.56,22.27,31.24,22.81v3.79c-5.59,1.25-14.58,2.28-21.47,2.28
				c-14.85,0-26.63-5.18-38.06-19.06c-9.9-12.03-27.8-37.65-37.73-50.27c-6.32-8.02-13.94-14.37-27.91-16.63
				c-2.75-0.47-5.35-0.86-8.4-1.19V238.09L1023.44,238.09L1023.44,238.09z M1023.44,164.1c5.77,0.75,14.27,1.14,22.7,1.14
				c34.03,0,44.7-19.59,44.7-36.85c0-24.59-16.36-39.75-46.18-39.75c-6.11,0-15.04,0.79-21.23,1.94V164.1L1023.44,164.1
				L1023.44,164.1z"/>
			<path d="M1596.63,238.09c0,9.35,5.95,14.43,16.87,16.75v5.04c-6.08,0-25.85-0.78-31.52-0.78c-4.85,0-24.27,0.78-30.32,0.78v-5.04
				c10.12-1.93,16.08-7,16.08-16.75V98.75c0-8.55-4.65-13.98-16.07-15.92v-5.02c6.08,0,25.24,0.76,30.65,0.76
				c8.88,0,34.14-1.45,44.06-1.45c43.48,0,67.67,17.96,67.67,48.72c0,24.23-18.06,40.59-45.75,47.34c0,0,6.25,3.67,12.57,11.04
				c7.71,9.01,28.89,39.34,37.42,49.71c8.59,10.38,19.57,22.27,31.3,22.81v3.79c-5.61,1.25-14.63,2.28-21.5,2.28
				c-14.85,0-26.64-5.18-38.07-19.06c-9.87-12.03-27.13-37.65-37.05-50.27c-6.33-8.02-13.96-14.37-27.93-16.63
				c-2.78-0.47-5.31-0.86-8.42-1.19V238.09L1596.63,238.09L1596.63,238.09z M1596.63,164.1c5.8,0.75,14.32,1.14,22.74,1.14
				c34,0,44.7-19.59,44.7-36.85c0-24.59-16.35-39.75-46.18-39.75c-6.08,0-15.05,0.79-21.26,1.94V164.1L1596.63,164.1L1596.63,164.1z
				"/>
			<path class="st0" d="M1310.99,416.22h2.58c1.39,5.28,4.41,10.06,8.64,12.86c4.38,3.11,11.28,4.6,16.85,4.6
				c12.32,0,20.12-6.09,20.12-15.75c0-10-10.04-14.57-21.97-20.43c-8.87-4.37-26.99-11.02-26.99-29.09
				c0-16.02,12.38-26.02,31.58-26.02c12.7,0,18.86,3.15,27.44,2.76l-0.18,19.13h-2.59c-3.44-11.28-13.68-15.21-24.86-15.21
				c-12.54,0-17.81,7.18-17.81,14.71c0,10.74,11.57,16.6,22.3,21.32c13.06,5.74,27.19,12.42,27.19,28.71
				c0,15.43-12.06,26.43-34.12,26.43c-13.18,0-21.03-3.56-27.92-4.42L1310.99,416.22L1310.99,416.22z"/>
			<path class="st0" d="M1509.03,435.58c4.39-1.01,7.49-3.01,7.49-8v-72.82c0-4.79-2.89-6.79-7.49-7.97v-2.59
				c2.3,0,12.44,0.39,14.87,0.39c2.78,0,13.35-0.39,15.64-0.39v2.59c-4.4,1.01-7.66,2.97-7.66,7.97v30.44h53.88v-30.44
				c0-5-2.88-6.96-7.47-7.97v-2.59c2.29,0,12.67,0.39,15.45,0.39c2.41,0,12.78-0.39,15.04-0.39v2.59c-4.39,1.01-7.66,2.97-7.66,7.97
				v72.82c0,4.79,3.07,6.8,7.66,8v2.39c-2.26,0-12.63-0.21-15.04-0.21c-2.78,0-13.16,0.21-15.45,0.21v-2.39
				c4.38-1.01,7.47-3.01,7.47-8v-34.4h-53.88v34.4c0,4.99,3.07,6.8,7.66,8v2.39c-2.29,0-12.86-0.21-15.64-0.21
				c-2.43,0-12.57,0.21-14.87,0.21V435.58L1509.03,435.58z"/>
			<path class="st0" d="M1482.52,414.62l-1.03,20.95c-6.9-0.76-16.73,4.71-33.26,4.71c-34.5,0-50.49-21.28-50.49-48.38
				c0-28.72,20.24-49.39,49.67-49.39c14.52,0,23.5,5.21,32.61,4.72l0.85,20.87h-2.67c-5.31-12.29-17.78-18.64-30.61-18.64
				c-21.68,0-33.39,19.12-33.39,41.93c0,18.7,9.43,41.95,35.55,41.95c14.76,0,25.42-5.28,30.1-18.73H1482.52L1482.52,414.62z"/>
			<path class="st0" d="M1632.04,391.71c0-27.06,18.78-49.2,48.36-49.2c29.42,0,48.21,21.99,48.21,49.2
				c0,27.05-18.79,48.59-48.21,48.59C1650.83,440.3,1632.04,418.91,1632.04,391.71L1632.04,391.71z M1712.11,391.71
				c0-21.77-9.67-42.34-31.71-42.34c-22.03,0-31.86,20.56-31.86,42.34c0,21.79,9.83,41.73,31.86,41.73
				C1702.44,433.44,1712.11,413.49,1712.11,391.71L1712.11,391.71z"/>
			<path class="st0" d="M1750.17,391.71c0-27.06,18.79-49.2,48.36-49.2c29.43,0,48.22,21.99,48.22,49.2
				c0,27.05-18.79,48.59-48.22,48.59C1768.96,440.3,1750.17,418.91,1750.17,391.71L1750.17,391.71z M1830.25,391.71
				c0-21.77-9.68-42.34-31.71-42.34c-22.04,0-31.85,20.56-31.85,42.34c0,21.79,9.82,41.73,31.85,41.73
				C1820.56,433.44,1830.25,413.49,1830.25,391.71L1830.25,391.71z"/>
			<path class="st0" d="M685.68,344.38h59.17c1.8,0,4.99-0.2,6.78-0.99h2.58l-0.39,19.12h-2.59c-2.19-5.98-5.46-10.74-17.09-10.74
				h-25.01v33.87c0,0,18.87,0,20.46,0c2.86,0,6.28-0.24,7.79-0.58c4.39-0.97,6.34-3.4,7.22-7.18h2.59c-0.2,2.88-0.2,9.22-0.2,11.14
				c0,1.93,0.2,8.8,0.2,11.94h-2.59c-1.26-3.75-2.96-6.6-7.22-7.64c-1.5-0.37-5.01-0.71-7.79-0.71c-1.44,0-20.46,0-20.46,0v38.07
				h28.5c12.06,0,15.55-5.04,18.55-12.14l2.59,0.6l-2.59,19.51c-8.97-0.81-14.35-0.81-24.52-0.81h-29.9c-2.79,0-13.11,0.4-16.1,0.4
				v-2.59c5.24-1.01,8.33-3.6,8.33-8.65v-71.77c0-4.43-2.41-7.23-8.32-8.21V344.38L685.68,344.38z"/>
			<path class="st0" d="M911.31,355.54c0-4.81-2.87-7.44-8.52-8.64v-2.59c3.14,0,13.53,0.4,16.47,0.4c2.5,0,12.93-0.4,16.08-0.4
				v2.59c-5.59,1.2-8.52,3.6-8.52,8.64V427c0,4.82,2.87,7.45,8.52,8.65v2.59c-3.13,0-13.14-0.4-16.08-0.4
				c-2.5,0-13.32,0.4-16.47,0.4v-2.59c5.75-1.08,8.52-3.6,8.52-8.65V355.54L911.31,355.54z"/>
			<path class="st0" d="M1056.61,435.58c5.91-1.4,9.17-5.24,11.34-10.39l30.01-72.21c1.27-2.98,2.74-9.13,2.74-9.13h8.41
				c0,0,1.51,6.16,2.77,9.13l31.7,72.41c2.27,5,4.73,8.58,11.03,10.19l-0.01,2.39c-3.44,0-14.11-0.21-16.55-0.21
				c-2.42,0-12.61,0.21-16.04,0.21l0.03-2.39c4.59-1.16,6.21-3.48,6.21-5.78c0-1.91-0.79-4.08-1.76-6.37l-6.76-15.39h-35.26
				l-6.16,15.48c-0.71,1.78-1.53,4.28-1.53,5.96c0,2.62,1.35,4.71,6.6,6.11l-0.03,2.39c-3.09,0-11-0.21-12.95-0.21l-13.82,0.21
				L1056.61,435.58L1056.61,435.58z M1116.48,400.45l-14.98-34.89l-13.94,34.89H1116.48L1116.48,400.45z"/>
			<path class="st0" d="M1044.26,414.62l-1.03,20.95c-6.9-0.76-16.74,4.71-33.26,4.71c-34.49,0-50.48-21.28-50.48-48.38
				c0-28.72,20.23-49.39,49.67-49.39c14.52,0,23.49,5.21,32.6,4.72l0.86,20.87h-2.68c-5.31-12.29-17.79-18.64-30.61-18.64
				c-21.68,0-33.39,19.12-33.39,41.93c0,18.7,9.43,41.95,35.55,41.95c14.75,0,25.41-5.28,30.1-18.73H1044.26L1044.26,414.62z"/>
			<path class="st0" d="M1243.27,418.54c-3,7.1-6.48,12.14-18.54,12.14h-28.5v-75.14c0-5.04,2.93-7.44,8.53-8.64v-2.59
				c-3.15,0-13.58,0.4-16.08,0.4c-2.94,0-13.32-0.4-16.46-0.4v2.59c5.64,1.2,8.51,3.83,8.51,8.64V427c0,5.05-2.77,7.57-8.52,8.65
				v2.59c3.15,0,13.97-0.4,16.46-0.4c0.06,0,0.13,0,0.19,0h-0.01h29.9c10.16,0,15.54,0,24.52,0.81l2.58-19.51L1243.27,418.54
				L1243.27,418.54z"/>
			<path class="st0" d="M1939.67,418.54c-2.99,7.1-6.48,12.14-18.54,12.14h-28.5v-75.14c0-5.04,2.92-7.44,8.52-8.64v-2.59
				c-3.15,0-13.58,0.4-16.08,0.4c-2.94,0-13.32-0.4-16.46-0.4v2.59c5.64,1.2,8.52,3.83,8.52,8.64V427c0,5.05-2.78,7.57-8.52,8.65
				v2.59c3.15,0,13.97-0.4,16.46-0.4c0.06,0,0.13,0,0.19,0h-0.01h29.9c10.16,0,15.55,0,24.52,0.81l2.58-19.51L1939.67,418.54
				L1939.67,418.54z"/>
			<path class="st0" d="M783.93,435.58c5.65-1.01,8.73-3.24,8.73-8.39v-72.43c0-5-3.05-6.96-8.48-7.97v-2.59
				c3.13,0,13.47,0.39,16.27,0.39c4.59,0,16.87-0.99,26.73-0.99c33.28,0,53.47,18.61,53.47,47c0,27.55-21,47.97-55.31,47.97
				c-9.89,0-21.22-0.79-25.82-0.79c-2.8,0-12.44,0.4-15.58,0.4V435.58L783.93,435.58z M807.83,430.79c3.4,0.58,9.05,0.97,14.01,0.97
				c28.03,0,42.63-15.75,42.63-40.4c0-24.42-15.38-41.59-41.61-41.59c-5.36,0-11.43,0.4-15.02,0.99V430.79L807.83,430.79z"/>
			<path class="st0" d="M650.84,425.01l-4.91-69.76c-0.36-4.68,1.8-7.08,7.32-8.22v-2.62c-3.66,0-10,0.29-12.26,0.29
				c-2.11,0-6.6-0.29-9.73-0.29l-31.01,72.18l-30.76-72.18c-3.01,0-8.07,0.29-10.19,0.29c-2.26,0-9.47-0.29-13.12-0.29v2.62
				c5.52,0.93,8.07,3.66,7.7,8.21l-5.21,69.78c-0.6,5.53-3.54,9.42-9.5,10.83v2.39l13.39-0.21c1.94,0,9.9,0.21,13.04,0.21v-2.39
				c-6.28-1.68-8.02-5.3-7.8-9.52l4.05-61.93l31.96,73.99h5.45l32.35-74.25l4.1,62.18c0.22,4.22-1.49,7.85-7.77,9.52v2.39
				c3.13,0,14.3-0.21,16.25-0.21l16.11,0.21v-2.39C654.33,434.43,651.4,431.1,650.84,425.01L650.84,425.01z"/>
			<path class="st1" d="M105.33,178.81c-0.05,0.24-0.48,2.43-0.48,2.43c-0.3,1.5-1.27,2.55-2.8,2.28l-5.52-0.95
				c-2.27-0.61-4.22-1.13-6.04-0.49c-0.77,0.54-2.06,1.57-3.12,2.81c0.37,0.18,0.9,0.42,0.9,0.42c1.55,0.6,4.15,1.58,4.83,4.72
				c0.06,2.4,1.45,4.34,2.69,6.05l0.97,1.39c0.41,0.58,0.66,1.12,0.66,1.66c0,0.44-0.17,0.88-0.56,1.33l-2.59,2.99
				c0,0-1.48,1.59-1.49,1.6c-0.01,0.07-1.19,3.03-1.89,4.78c0.58,1.06,1.21,2.03,1.93,2.15c2.33-0.57,4.48-0.28,6.23,0.14l3.64,0.44
				c-0.2-0.03,0.89-0.03,0.69-0.01l1.45-0.13c1.62-0.24,3.85-0.55,5.62,0.89c0,0,1.66,3.54,1.77,3.79c0.35,1.11,0.63,2.21,0.63,3.21
				c0,1.45-0.26,2.77-0.48,3.94l-0.33,2.11c-0.07,0.41-0.25,1.01-0.49,1.35c-3.46,5.06-8.18,9.09-13.64,11.69
				c0.36-0.2,0.41-0.25,0.41-0.25c-0.06,0.07-0.11,0.31-0.11,0.63c0,0.1,0.04,0.22,0.05,0.31c0.72,0.57,2.82,0.36,4.33,0.18
				l1.49-0.17c2.52-0.12,4.71-0.93,7.03-1.8l7.5-2.02c1.3-0.36,2.22,0.35,2.82,1.55c1.42,2.83,3.09,4.88,4.6,5.63
				c-0.12-0.1,0.11-0.19,1.37-1.26c1.46-1.24,3.88-3.3,7.55-1.92c0.26,0.1,0.51,0.24,0.73,0.41c2.47,1.91,3.25,4.6,3.85,6.77
				c0.46,1.61,0.85,3,1.79,3.93c0.43,0.43,0.71,1.01,0.8,1.61c0.04,0.26,0.06,0.54,0.06,0.79c0,2.83-2.43,3.88-3.27,4.25l-0.46,0.21
				c-0.24,0.11-0.48,0.35-0.74,0.4l-6.15,1.02c-2.14,0.15-3.88,0.47-5.25,1.17c0.23,0.28,0.28,0.5,0.74,0.74
				c2.9,1.54,6.53,2.12,10.36,2.71l2.1,0.34c-0.12-0.01,4.8-0.16,4.8-0.16l7.72,0.21c1.03,0.03,1.62,0.57,2.1,1.46
				c0.48,0.91,0.12,1.94-0.42,2.82l-1.27,2.04c-0.22,0.33-0.5,0.62-0.83,0.84l-12.51,8.42c-0.51,0.28-7.4,2.71-7.4,2.71l-9.66,3.8
				c-0.11,0.05-0.55,0.24-0.66,0.28c-5.64,1.44-9.48-1.66-12.57-4.16c-2.21-1.8-4.12-3.34-6.31-3.17c-2.3,0.01-3.73,0.57-5.49,2.12
				c-0.57,0.58-0.79,1.57-0.79,2.57c0,0.33,0.06,0.65,0.11,0.98c0.22,0.1,0.6,0.25,0.6,0.25c1.16,0.43,3.86,1.41,3.86,4.76
				c-0.15,4.36-1.97,7.81-3.72,11.16c-1.53,2.88-2.97,5.64-3.18,8.7c-0.03,0.2-0.04,0.4-0.04,0.6c0,0.64,0.14,1.23,0.5,1.37
				c0.31,0.15,0.36,0.18,0.36,0.18c0.23,0.05,0.78-0.11,0.95-0.29c0.01-0.01,0.75-1.17,0.75-1.17c0.69-1.26,1.84-3.38,4.79-3.95
				c0.29-0.05,0.59-0.06,0.88-0.03c5.01,0.58,7.78,0.03,9.58-1.91c0.42-0.45,1-0.77,1.62-0.88c1.51-0.24,3.09,0.23,4.37,1.3
				c1.26,1.07,2.02,2.59,2.02,4.07c0,0,0.06,0.73,0.11,1.35c3.01-0.54,5.17-3.32,7.65-7.54l0.99-1.66c0.37-0.63,1.23-1.12,1.93-1.32
				l2.04-0.58c2.34-0.76,5.53-1.8,8.68,0.23c0.63,0.39,1.06,1.02,1.24,1.74c0.18,0.76,0.26,1.5,0.26,2.19
				c0,2.68-1.13,4.92-2.07,6.81c0,0-0.5,1.23-0.93,2.3c4.81-1.11,8.21-5.26,11.73-9.78l2.12-2.67c0.65-1.52,2.15-4.61,6.04-4.61
				c0.28,0,0.56,0.03,0.83,0.11c1.64,0.5,2.39-0.01,4.7-3.29l3.78-4.23c0.54-0.6,0.84-0.53,1.66-0.53h1.54
				c0.76,0,1.42-0.09,1.97,0.44c0.54,0.53,0.77,0.87,0.77,1.61c0,0.01-0.01,3.68-0.01,3.68s-0.02,0.11-0.03,0.16
				c0.45-0.15,2.89-1.08,3.78-1.41c0.13-0.08,5.29-3.27,5.29-3.27c0.66-0.42,1.62-0.49,2.37-0.29l19.42,5.02
				c3.96,1.5,4.72,4.23,4.72,6.52c0,0.84-0.1,1.64-0.19,2.28c-0.11,0.76-0.17,1.35-0.17,1.8c0,0.54,0.1,0.89,0.34,1.13
				c0.55,0.54,0.84,1.28,0.84,2.03c0,0.37-0.08,0.74-0.23,1.11c-0.79,1.85-2.8,4.04-7.97,4.04c-0.09,0-9.87,0.55-9.87,0.55
				c-8.12,0.15-15.78,0.28-21.37,5.55c0,0.01-5.3,5.3-5.3,5.3c-0.51,0.5-1.21,0.82-1.93,0.83c-3.78,0.11-6.59,1.93-9.84,4.02
				c-2.93,1.9-5.99,3.8-9.92,4.53c-2.85,1.56-6.03,1.59-8.65,1.49c-2.33-0.1-3.71-0.04-4.67,0.42c2.53,3.03,7.22,4.46,11.54,5.64
				c0.41,0.15,2.42,0.42,2.42,0.42c2.09,0.11,5.24,0.28,6.77,3.35c0.16,0.33,0.26,0.65,0.3,0.99c0.26,2.63,0.74,3.68,1.75,4.09
				c0.19-0.11,0.44-0.24,0.44-0.24c0.99-0.59,3.6-2.17,6.27,0.15c0.43,0.47,4.62,4.55,4.62,4.55l5.11,5.25
				c0.87,0.91,0.71,1.81,0.11,2.92c-2.28,4.18-6.78,3.45-9.46,3.02l-2.24-0.26c-0.2-0.26-2.9,0.15-2.9,0.15
				c-4.2,0.76-9.94,1.78-13.85-2.98c0.11,0.13,0.37,0.36,0.51,0.49l-3.87-3.25c-3.14-2.81-5.89-5.18-9.72-5.3
				c-3.99,1.15-5.79,2.37-6.16,4.46c-0.01,0.06-0.03,0.14-0.03,0.14c0.01,0.01,0.97,1.05,0.97,1.05l1.68,1.84
				c0.45,0.5,0.62,1.01,0.62,1.61c0,0.16-0.01,0.31-0.03,0.49c-0.1,0.82-0.69,1.39-1.38,1.85c-3.28,2.18-6.93,5.49-6.93,9.41
				c0,0.5,0.07,1.01,0.19,1.54c0.01-0.04,0.17,0.33,0.3,0.59c0.36-0.1,1.25-0.35,1.25-0.35c1.47-0.55,3.7-1.4,6.24,0.01
				c0.86,0.47,1.39,1.16,1.45,2.12l0.22,3.01c0.13,3.31,0.54,4.84,1.61,5.65c0.74-0.29,1.56-0.62,1.56-0.62
				c2.22-1.15,5.58-2.88,9.51,0c0.69,0.27,1.73-0.2,4-1.49l3.7-1.75c0.38-0.18,0.42-0.11,0.84-0.11c6.87,0,9.64,5.97,11.46,9.92
				c0,0,0.02,0.04,0.02,0.05c0.1,0.06,0.25,0.16,0.25,0.16c3.04,2.38,5.58,4.05,7.81,3.44c0.1-0.3,0.25-0.57,0.25-0.94
				c0-0.66-0.12-1.41-0.28-2.35c-0.15-0.87-0.33-1.94-0.33-3.06c0-2.37,0.8-4.99,4.36-6.67c0.44-0.18,6.8-0.63,6.8-0.63l4.04-0.11
				c0.12,0,0.73-0.06,0.85-0.05c5.95,0.55,10.68,0.64,12.76-3.54c0.09-0.15,4.27-7.28,4.94-8.44c0.15-0.79,0.93-4.86,0.93-4.86
				c0.2-1.03,0.95-1.89,1.97-2.19c2.2-0.68,4.35,0.11,6.08,0.76c0,0,0.89,0.26,1.47,0.44c-0.99-3.35-1.73-6.7-1.73-10.16
				c0-1.74,0.12-3.5,0.37-5.29c1.28-4.91,3.38-8.8,6.15-11.57c0.82-0.82,2.04-1.07,3.09-0.64l1.29,0.53
				c0.89,0.37,1.51,1.03,1.7,1.98l1.26,6.37c0.72,4.17,1.4,8.08,3.13,11.69c0.28,0.59,0.42,0.83,0.26,1.47l-2.34,9.48l-2,7.49
				c-1.73,6.96-6.46,12.67-13.05,15.95c0.07,0.04-0.31,0.6-0.18,0.91c0.08,0.13,1.43,0.05,2.53,0.01c0,0,1.69,0.04,2.67,0.08
				c7.29-0.94,14.01-4.42,18.92-9.8c0.71-0.79,1.82-1.12,2.85-0.83c1.44,0.39,2.57-0.19,4.44-1.25c2.26-1.28,5.68-3.22,9.8-0.76
				c1.64,1.22,3.95,1.03,6.42,0.82c3.84-0.32,10.25-0.86,12,6.6c0.05,0.16,0.02,1.01,0.03,1.18l0.17,3.45
				c0.42,3.55,1.22,10.14-5.8,12.04c-0.58,0.16-0.62,0.28-1.17,0.06l-7.26-2.71c-5.65-2.77-8.23-3.58-11.09-0.28
				c-0.69,0.69-1.53,1.71-1.15,2.47c0.98,1.69,3.43,5.97-0.18,9.05c0.24-0.21,0.44-0.45,0.6-0.73l-0.39,0.67
				c-1.83,3.1-3.06,5.46-2.22,7.56c-0.02-0.06,0.37,0.62,2.86,0.08c2.93-1.22,6.02-0.03,8.5,0.93l3.54,1.05
				c0.35,0.1,1.25,0.36,1.54,0.58l1.12,0.88c2.33,1.83,4.56,3.41,6.94,3.7c0.11-0.28,0.23-0.54,0.23-0.54l1.57-3.1
				c0.37-0.38,4.78-2.56,4.78-2.56c2.94-1.03,3.24-1.4,3.24-2.51c0.87-4.7,4.1-8.87,8.69-11.69c0.41-0.25,1.21-0.38,1.7-0.39
				c1.01-0.06,4.27-1.1,6.22-2.47c-0.08-0.08-0.33-0.34-0.33-0.34l-1.17-1.25c-0.34-0.38-0.9-1.13-1.01-1.62
				c-0.15-0.68-0.22-1.34-0.22-1.98c0-3.27,1.75-6.01,3.22-8.29c1.46-2.27,2.27-3.7,2.27-5.05c0-0.83-0.32-1.6-0.98-2.53
				c-0.25-0.34-0.34-0.44-0.42-0.87l-0.84-4.65c-0.36-2.98-0.68-5.58-2.75-7.15c-0.1-0.08-5.05-2.62-5.05-2.62l-5.48-2.61
				c-0.99-0.47-1.31-1.3-1.31-2.39c0-2.51,1.58-3.97,4.7-4.34l0.69-0.11c3.58-0.98,6.53,0.14,8.91,1.06
				c2.39,0.89,3.23,0.92,3.88,0.57c-0.35-1.99-2.34-4.16-4.17-5.97c-3.13-2.25-7.03-3.19-11.16-4.17
				c-6.29-1.51-12.81-3.07-17.13-9.12c-0.36-0.5-0.53-1.08-0.53-1.66c0-0.74,0.28-1.46,0.83-2.01l0.77-0.76
				c0.68-0.69,1.67-0.98,2.62-0.77c7.85,1.7,15.6,0.03,20.75-4.47c3.08-4.05,6.99-8.93,12.98-10.94c4.28-3.39,5.18-8.97,5.18-16.27
				c0.31-3.69,1.84-6.85,4.41-9.42c0.08-0.09,5.59-2.72,5.59-2.72c1.81-0.54,2.48-0.87,2.82-1.2c-3.27-1.62-6.88-3.1-10.71-2.72
				c-0.58,0.06-1.16-0.06-1.67-0.34c-1.69-0.93-2.2-2.22-2.31-3.14c-0.03-0.18-0.04-0.36-0.04-0.54c0-1.91,1.42-3.3,2.3-4.17
				l0.43-0.44c0.18-0.2,0.49-0.54,0.71-0.67l6.13-3.51c8.06-4.29,13.02-7.44,13.02-14.08c0-0.06-0.01-0.14-0.01-0.21
				c-0.14-0.34-0.2-0.49-0.28-0.68c-0.95,0.39-1.85,0.84-2.94,1.71l-4.23,2.86c-3.89,2.22-8.39,3.17-12.72,4.11
				c-4.29,0.93-8.36,1.79-11.73,3.89c-0.45,0.28-0.98,0.42-1.5,0.42c-1.61,0-2.97-0.87-3.56-2.29c-0.22-0.53-0.31-1.07-0.31-1.64
				c0-1.36,0.56-2.7,1.34-3.48c1.32-1.84,3.48-3.06,5.39-4.13c2.3-1.28,3.73-2.17,4.47-3.89c0-0.01,0.79-2.23,0.79-2.23
				c1.16-3.46,2.69-7.69,7.01-9.52c0.54-0.28,3.89-2.04,3.89-2.04c0.84-0.32,1.06-0.68,1.59-0.96c-0.26-0.14-0.21-0.21-0.59-0.33
				c-6.81-2.12-13.41,3.14-16.73,6.45c-0.26,0.26-0.55,0.47-0.89,0.61l-2.56,1.07c-4.44,1.83-9.03,3.73-12.06,6.95
				c-0.32,0.33-0.72,0.59-1.17,0.74c-1.3,0.44-2.81,0.19-3.97-0.64c-1.16-0.83-1.83-2.14-1.83-3.6
				c-1.07-10.52,7.33-18.17,14.08-24.33l1.63-1.5c0.19-0.17,0.99-0.54,1.21-0.66l4.13-2.13c3.24-2.05,7.28-4.59,12.33-2.29
				c3.94,2.09,7.1,3.54,10.43,2.43c2.18-0.79,3.6-2.72,5.24-4.96c1.58-2.15,3.37-4.58,6.18-6.27c2.95-1.05,5.32-0.28,7.24,0.32
				c0.81,0.26,2.31,0.74,2.71,0.6c0.01-0.01,0.37-0.63,0.37-0.63c0.06-0.29,0.09-0.56,0.09-0.83c0-1.9-1.32-3.68-3.33-6.25
				l-2.42-3.3c-0.33-0.45-0.47-0.92-0.47-1.4c0-0.37,0.08-0.76,0.23-1.14c0.79-2.03,1.17-4.14,1.17-6.26c0-4.97-2.12-9.87-6-13.28
				c-1.11-0.59-3.67-1.77-6.26-1.66c0.32,0.52,0.86,1.38,0.86,1.38l2.47,5.33c0.05,0.65,0.08,1.28,0.08,1.89
				c0,11.7-10.1,16.75-18.3,20.85l-7.06,3.85c-16.56,8.29-38.33,21.62-39.55,43.45c0.23,11.22,4.9,21.94,13.49,30.79
				c0.14,0.15,0.32,0.39,0.42,0.55l3.03,4.77c3.41,5.11,7.16,10.78,7.16,17.57c0,1.64-0.22,3.35-0.72,5.14
				c-2.88,6.66-10.38,6.66-13.2,6.66c-16.29-1.08-25.16-17.52-31.63-29.49l-0.99-1.85c-0.1-0.2-1.34-2.88-1.34-2.88
				c-1.78-3.79-3.64-7.72-4.1-12.49c-0.08-0.86,0.22-1.69,0.82-2.29c0.77-0.78,2.89-2.37,5.9-0.36c0.33,0.26,3.25,4.92,3.25,4.92
				c0.39,0.87,0.62,1.28,0.86,1.66c0.26-0.82,0.74-1.57,0.74-2.46c0-2.83-1.2-5.94-2.36-8.98l-0.37-0.96
				c-0.88-1.45-2.63-3.01-4.49-4.66c-2.43-2.17-4.95-4.42-6.42-7.69c-0.14-0.31-0.23-0.63-0.25-0.97c-0.01-0.16-0.01-0.32-0.01-0.47
				c0-3.87,3.44-4.81,4.77-5.16c0,0,0.51-0.17,0.81-0.27c-1.15-4.13-1.89-8.47-1.89-13c0-2.2,0.14-4.43,0.42-6.65
				c0.01-0.08,0.01-0.13,0.01-0.17c0-0.2-0.07-0.2-0.07-0.23c0-0.02,0.05-0.06,0.21-0.24l3.68-3.94c1.16-0.71,1.22-0.85,1.23-1.12
				c-1.25-4.77-1.63-9.54-1.63-14.18c0-1.91,0.05-3.8,0.12-5.65c0.05-0.42,1.36-4.69,1.36-4.69c0.71-1.93,1.23-3.41,1.23-4.71
				c0-0.47-0.18-0.9-0.33-1.35c-2.57-1.57-2.97-4.33-3.11-5.81c0,0-0.23-1.4-0.24-1.46c-0.05-0.03-0.17-0.07-0.17-0.07
				c0.34,0.14,0.44,0.12,0.81,0.12c-6.83,0-12.25-2.53-17.49-4.97l-5.98-2.62c-1.37-0.36-2.74,0.15-4.83,1.02l-3.17,1.12
				c-0.1,0.02-3.38,0.61-3.38,0.61c-3.51,0.57-6.55,1.06-8.49,3.15c-1.1,1.36-1.12,2.97-1.05,5.93l0.03,1.83
				c0.01,0.32-0.04,0.61-0.15,0.9c-0.57,1.72-1.66,2.45-2.46,2.77c-1.86,0.73-3.59-0.23-4.51-0.74l-0.42-0.22
				c-5.09-2.82-7.12-7.89-5.71-13.14c0.25-0.9-0.52-1.65-0.86-1.93c-1.26-0.81-3.66-1.5-5.63-0.79c-1.6,0.56-2.42,2.24-3.6,4.93
				c0,0-0.41,0.9-0.68,1.5c-0.01,0.21-0.03,0.42-0.03,0.63c0,1.79,0.44,3.66,1.16,4.82c2.24,2.28,5.51,4.09,8.97,6l8.28,5.31
				c0.56,0.35,0.7,0.68,0.9,1.3c0.3,0.89,0.42,1.75,0.42,2.59c0,3.04-1.58,5.46-2.95,7.3c0.09,0.07,0.21,0.16,0.21,0.16
				c0.93,0.68,2.77,2.01,2.77,4.41c0,0.33-0.03,0.66-0.1,1.03c-0.22,1.08-1.04,1.94-2.1,2.2c-5.03,1.26-10.02,0.21-13.75-2.87
				c-0.06-0.05-2.48-3.26-2.48-3.26c-0.78-1.34-1.21-1.83-1.7-2.06c-0.37,0.36-0.86,1.51-1.14,2.19l-1.15,2.44
				c0.18-0.33-0.25,2.01-0.25,2.01c-0.23,2.1-0.52,4.72-2.6,6.54c-0.6,0.54-1.39,0.78-2.18,0.7l-2.3-0.26
				c-10.5-3.51-19.99-8.75-30.49-16.63c-4.57-3.48-7.98-8.15-11.28-12.68l-2.56-3.44c-0.2-0.28-0.36-0.54-0.45-0.87l-0.96-3.3
				c-1.74-6.33-3.31-10.57-7.83-11.96C106.13,178.64,105.54,178.76,105.33,178.81L105.33,178.81L105.33,178.81z M112.08,216.33
				L112.08,216.33c0,0,0,0.02,0,0.02V216.33L112.08,216.33z M91.48,212.26c0.4-0.17,0.75-0.12,1.14-0.23
				C92.24,212.03,91.84,212.11,91.48,212.26L91.48,212.26L91.48,212.26z M185.96,215.64c0.44-0.55,0.71-0.63,0.71-1
				c0,0,0-0.02,0-0.03C186.43,214.91,186.15,215.39,185.96,215.64L185.96,215.64L185.96,215.64z M236.78,250.63
				c0,0.08,0.21,0.03,0.37,0.57c-0.1-0.29-0.06-0.65-0.14-0.94C236.85,250.49,236.78,250.58,236.78,250.63L236.78,250.63
				L236.78,250.63z M174.37,294.1c0,0,0.09-0.04,0.1-0.04c-0.09-0.01-0.17-0.01-0.37-0.2L174.37,294.1L174.37,294.1L174.37,294.1z
				 M174.61,294.65c0.04-0.34,0.08-0.45,0.08-0.49c0-0.01-0.01-0.01-0.02-0.03C174.64,294.39,174.61,294.65,174.61,294.65
				L174.61,294.65L174.61,294.65z M118.85,311.31c0.07,0,0.12-0.03,0.19-0.03C118.97,311.3,118.96,311.31,118.85,311.31
				L118.85,311.31L118.85,311.31z M212.21,366.7c0,0.32,0.09,0.62,0.21,0.98c-0.12-0.35-0.07-0.72-0.18-1.07
				C212.24,366.65,212.21,366.68,212.21,366.7L212.21,366.7L212.21,366.7z M215.34,394.29c0.27,0,0.79,0.01,0.79,0.01
				C215.99,394.3,215.55,394.28,215.34,394.29L215.34,394.29L215.34,394.29z"/>
			<path class="st2" d="M23.72,178.51c0-45.62,0.03-96.45,0-155.88H413.8c0,0-0.05,23.25-0.05,156.87
				c0,197.52-196.68,313.33-196.68,313.33S23.72,371.19,23.72,178.51L23.72,178.51L23.72,178.51z"/>
			<path d="M295.99,405.9h0.04c-0.04-0.03-0.08-0.05-0.12-0.08h0.04h0.07h-0.03h0.03h0.05h0.12h-0.04h-0.04h0.08h-0.04h0.02
				c-1.28-1.06-2.84-3.17-3.7-3.85c-1.54-6.89,9.17-11.48,3.82-18.89c-1.27-4.34-0.25-9.95-4.59-13.29
				c-3.06-2.53-7.15-3.05-10.72-5.34c0-1.79,2.3-1.28,3.57-1.79c5.62-1.54,10.72,5.35,14.81,0.25c0.51-3.84-3.07-7.15-5.62-9.7
				c-8.42-5.87-21.19-3.59-27.58-12.52l0.77-0.77c8.17,1.79,17.1,0.26,23.23-5.09c3.57-4.61,7.14-9.21,12.75-10.73
				c5.61-4.34,6.38-11.48,6.38-18.64c0.26-2.8,1.54-5.36,3.58-7.4c3.07-2.81,10.97-1.79,9.44-7.66c-4.33-2.29-8.92-4.33-14.03-3.83
				c-2.3-1.27,0.51-3.06,1.27-4.08c8.18-5.36,20.94-8.68,20.42-20.68c-0.76-1.27-0.5-3.32-2.55-3.58c-3.58,0.52-5.62,3.83-8.93,5.36
				c-7.65,4.33-17.36,3.58-24.75,8.17c-1.54,0-1.02-2.04-0.52-2.56c2.81-3.83,8.42-4.09,10.47-8.93c1.53-3.83,2.29-8.93,6.63-10.47
				c2.55-2.04,6.64-2.04,8.17-5.11c-0.25-1.79-2.3-2.81-3.83-3.32c-7.4-2.3-14.54,2.04-19.65,7.14c-5.36,2.3-11.48,4.35-15.57,8.7
				c-0.76,0.24-2.04-0.25-2.04-1.55c-1.03-10.2,8.17-17.6,14.8-23.73c4.85-1.28,8.93-7.14,14.55-4.58
				c3.82,2.03,7.91,4.07,12.51,2.55c5.62-2.05,6.89-8.43,11.99-11.49c3.83-1.27,9.19,4.35,11.48-1.02
				c1.28-5.62-3.32-8.93-5.86-13.02c3.06-7.91,0.77-17.09-5.62-22.71c-3.06-1.79-6.89-3.07-10.46-2.05
				c-2.81,3.58,2.55,5.87,2.8,9.44c1.28,14.55-14.55,17.87-23.99,23.99c-17.88,8.93-39.57,22.72-40.84,45.69
				c0.26,12.76,5.61,24,14.29,32.93c4.6,7.91,12,15.31,9.19,25.27c-1.78,4.07-6.63,4.58-10.46,4.58
				c-15.31-1.03-23.74-18.11-30.12-29.86c-2.05-4.6-4.59-8.93-5.1-14.29c0.77-0.77,1.53-0.5,2.3,0c2.8,2.54,2.55,8.68,7.4,7.91
				c3.82-5.36,1.02-11.74-1.02-17.1c-2.8-4.85-8.68-7.39-10.98-12.52c-0.26-3.82,5.36-1.52,5.62-5.35
				c-2.04-6.64-2.3-13.53-1.53-19.67c1.03-2.8,5.11-2.54,5.11-6.1c-1.79-6.39-1.79-12.77-1.53-19.67c0.76-4.07,4.09-8.42,1.78-12.75
				c-4.58-1.28-0.76-6.89-5.09-8.17c-8.69,0-15.06-4.61-22.46-7.4c-3.84-1.02-6.64,1.28-9.71,2.04c-4.84,1.02-9.95,1.02-13.27,4.6
				c-2.3,2.8-1.79,5.86-1.79,9.69c-0.77,2.3-2.81,0.26-3.82,0c-3.58-2.04-4.85-5.87-3.84-9.69c0.51-1.79-0.26-3.58-1.79-4.86
				c-2.29-1.52-5.62-2.3-8.42-1.27c-3.57,1.27-4.59,5.35-6.12,8.42c-0.26,2.55,0.25,5.62,1.53,7.65c5.09,5.36,12.24,7.4,17.86,12
				c1.02,3.06-1.03,6.12-3.06,8.67c-0.26,2.81,3.84,2.81,3.32,5.36c-4.09,1.03-8.16,0.26-11.24-2.29c-2.04-1.79-2.55-5.62-5.86-6.13
				c-3.07,0-3.59,4.1-4.85,6.13c-1.03,2.29-0.25,6.12-2.3,7.91l-2.3-0.25c-10.47-3.58-19.91-9.19-29.09-16.09
				c-5.36-4.09-9.2-10.22-13.28-15.58c-2.04-6.38-3.06-15.31-11.23-17.35c-1.79,0.26-4.09,0.5-4.34,2.55l-0.52,2.55
				c-4.08,0-8.17-2.81-12.5-1.29c-2.06,1.29-4.09,2.82-5.36,4.86c-0.26,4.58,5.36,2.8,6.13,6.38c0,3.31,2.55,6.13,4.07,8.42
				c-1.02,1.8-3.06,2.82-4.07,4.6l-2.57,6.38c1.04,2.05,2.31,4.6,4.86,4.86c3.56-1.55,6.63,1.02,10.46,0.51
				c2.3,0.25,6.12-1.8,6.38,2.04c1.28,3.06,0,5.87-0.25,8.68c-3.32,4.85-7.67,8.43-12.51,10.72c-1.53,1.02-1.53,3.31-1.02,4.84
				c1.78,2.57,5.87,1.54,8.68,1.28c5.36-0.25,9.45-3.31,14.55-3.83c1.28,2.55,3.32,5.62,5.88,6.89c4.08,1.02,5.1-4.6,9.18-3.07
				c3.32,2.55,2.3,7.41,5.36,10.46c0.26,1.79-1.53,1.79-2.55,2.56c-4.34,1.52-10.46,0-13.78,3.56c-0.52,2.05,1.27,3.84,2.81,4.61
				c3.82,2.03,8.68,2.56,13.27,3.32c4.08,0.49,8.42-1.03,12.25,0l-1.28,2.03l-12.5,8.41c-5.61,2.32-11.74,3.58-16.84,6.4
				c-7.92,2.04-11.24-7.92-18.38-7.39c-3.06,0-5.1,0.99-7.15,2.8c-1.79,1.78-2.04,4.6-1.53,6.89c1.02,2.29,4.34,1.28,4.34,3.83
				c-0.26,7.17-6.38,12.26-6.89,19.67c-0.26,1.78,0.25,4.05,2.29,4.84c1.28,0.76,3.32,0.25,4.34-0.78c1.53-1.51,1.53-3.82,4.08-4.33
				c4.34,0.52,8.94,0.52,12-2.8c1.53-0.25,3.06,1.27,3.06,2.54c0,1.79,0,3.84,1.78,4.58c6.39,0.26,9.45-6.36,12.26-10.96
				c2.82-0.5,5.87-2.57,8.68-0.77c1.02,4.34-2.55,7.39-3.32,11.48c0.26,1.02,1.53,2.04,2.81,2.29c7.65-1.02,11.99-8.16,16.59-13.78
				c0.77-1.54,1.54-3.58,3.84-3.58c5.86,1.78,7.4-5.35,10.97-7.92h1.54c0.52,1.8-0.76,3.07,0,4.86c2.55,2.8,5.36-0.25,7.92-0.77
				l5.36-3.31c6.38,2.03,13.02,3.56,19.65,5.1c5.36,2.04,0,7.66,3.32,10.98c-0.76,1.78-3.06,2.3-5.36,2.3
				c-11.23,1.51-24.24-1.54-33.18,6.89l-5.36,5.35c-8.42,0.26-12.76,7.4-20.41,8.68c-5.11,3.58-13.02-1.52-16.34,4.34
				c2.55,5.35,8.94,7.14,14.55,8.68c2.31,1.02,6.12-0.26,7.4,2.29c0.26,2.56,0.77,5.62,3.83,6.64c2.29,0.76,3.57-2.54,5.62-0.77
				c2.81,3.83,6.89,5.63,9.19,9.19c-1.8,3.33-6.13,1.28-9.19,1.28l-0.51-0.25c-4.6,0.5-10.46,2.8-14.03-1.55
				c-4.86-3.58-8.69-9.18-15.58-9.18c-3.83,1.02-7.91,2.56-8.68,6.89c-0.51,2.56,2.04,3.58,3.06,5.11c-4.6,3.06-9.44,7.9-7.91,14.02
				c0.51,1.28,1.02,2.82,2.81,2.82c2.3,0,4.08-2.04,6.38-0.78c0.51,3.85-0.51,9.72,4.08,11.51c3.58-0.52,6.13-4.34,9.95-1.54
				c3.82,1.79,6.89-1.79,10.21-2.81c5.36,0,7.4,5.11,9.19,8.93c3.31,2.56,7.91,6.64,12.5,4.09c3.07-4.33-2.8-9.96,3.07-12.76
				c3.57-1.03,6.64,0.24,10.21-0.53c5.62,0.53,12.5,1.03,15.58-5.09l5.1-8.7l1.02-5.35c3.32-1.02,8.17,4.34,9.7-0.76
				c-1.78-5.11-2.29-10.23-1.53-15.83c1.02-3.84,2.81-7.4,5.35-9.97l1.29,0.53c1.53,6.37,1.77,12.77,4.58,18.64
				c-0.51,5.87-3.57,10.97-4.33,16.84c-1.54,6.13-5.87,10.98-11.49,13.79c-1.27,1.02-2.29,2.82-1.53,4.58
				c1.53,2.82,5.36,1.28,8.16,1.79c7.92-1.03,15.31-4.85,20.68-10.72c5.62,1.54,8.42-5.35,13.53-2.29
				c5.36,4.09,15.06-3.06,17.1,5.62c-0.77,4.08,3.06,11.47-3.58,13.27c-6.63-1.02-14.29-9.71-20.92-2.04
				c-1.54,1.52-2.56,3.58-1.54,5.6c1.03,1.8,2.3,4.09,0.51,5.62c-1.79,3.06-4.34,6.89-2.8,10.73c1.27,2.28,3.83,2.28,6.12,1.78
				c3.84-1.52,7.41,1.79,11.23,2.05c3.32,2.56,6.64,5.63,10.98,5.35c1.79-1.01,1.53-3.31,2.81-4.84c2.81-2.3,8.68-1.8,8.68-6.9
				c0.76-3.83,4.02-7.22,7.34-9.27C286.52,411.35,293.99,409.52,295.99,405.9L295.99,405.9L295.99,405.9z"/>
			<path class="st3" d="M295.99,405.9h0.04c-0.04-0.03-0.08-0.05-0.12-0.08h0.04h0.07h-0.03h0.03h0.05h0.12h-0.04h-0.04h0.08h-0.04
				h0.02c-1.28-1.06-2.84-3.17-3.7-3.85c-1.54-6.89,9.17-11.48,3.82-18.89c-1.27-4.34-0.25-9.95-4.59-13.29
				c-3.06-2.53-7.15-3.05-10.72-5.34c0-1.79,2.3-1.28,3.57-1.79c5.62-1.54,10.72,5.35,14.81,0.25c0.51-3.84-3.07-7.15-5.62-9.7
				c-8.42-5.87-21.19-3.59-27.58-12.52l0.77-0.77c8.17,1.79,17.1,0.26,23.23-5.09c3.57-4.61,7.14-9.21,12.75-10.73
				c5.61-4.34,6.38-11.48,6.38-18.64c0.26-2.8,1.54-5.36,3.58-7.4c3.07-2.81,10.97-1.79,9.44-7.66c-4.33-2.29-8.92-4.33-14.03-3.83
				c-2.3-1.27,0.51-3.06,1.27-4.08c8.18-5.36,20.94-8.68,20.42-20.68c-0.76-1.27-0.5-3.32-2.55-3.58c-3.58,0.52-5.62,3.83-8.93,5.36
				c-7.65,4.33-17.36,3.58-24.75,8.17c-1.54,0-1.02-2.04-0.52-2.56c2.81-3.83,8.42-4.09,10.47-8.93c1.53-3.83,2.29-8.93,6.63-10.47
				c2.55-2.04,6.64-2.04,8.17-5.11c-0.25-1.79-2.3-2.81-3.83-3.32c-7.4-2.3-14.54,2.04-19.65,7.14c-5.36,2.3-11.48,4.35-15.57,8.7
				c-0.76,0.24-2.04-0.25-2.04-1.55c-1.03-10.2,8.17-17.6,14.8-23.73c4.85-1.28,8.93-7.14,14.55-4.58
				c3.82,2.03,7.91,4.07,12.51,2.55c5.62-2.05,6.89-8.43,11.99-11.49c3.83-1.27,9.19,4.35,11.48-1.02
				c1.28-5.62-3.32-8.93-5.86-13.02c3.06-7.91,0.77-17.09-5.62-22.71c-3.06-1.79-6.89-3.07-10.46-2.05
				c-2.81,3.58,2.55,5.87,2.8,9.44c1.28,14.55-14.55,17.87-23.99,23.99c-17.88,8.93-39.57,22.72-40.84,45.69
				c0.26,12.76,5.61,24,14.29,32.93c4.6,7.91,12,15.31,9.19,25.27c-1.78,4.07-6.63,4.58-10.46,4.58
				c-15.31-1.03-23.74-18.11-30.12-29.86c-2.05-4.6-4.59-8.93-5.1-14.29c0.77-0.77,1.53-0.5,2.3,0c2.8,2.54,2.55,8.68,7.4,7.91
				c3.82-5.36,1.02-11.74-1.02-17.1c-2.8-4.85-8.68-7.39-10.98-12.52c-0.26-3.82,5.36-1.52,5.62-5.35
				c-2.04-6.64-2.3-13.53-1.53-19.67c1.03-2.8,5.11-2.54,5.11-6.1c-1.79-6.39-1.79-12.77-1.53-19.67c0.76-4.07,4.09-8.42,1.78-12.75
				c-4.58-1.28-0.76-6.89-5.09-8.17c-8.69,0-15.06-4.61-22.46-7.4c-3.84-1.02-6.64,1.28-9.71,2.04c-4.84,1.02-9.95,1.02-13.27,4.6
				c-2.3,2.8-1.79,5.86-1.79,9.69c-0.77,2.3-2.81,0.26-3.82,0c-3.58-2.04-4.85-5.87-3.84-9.69c0.51-1.79-0.26-3.58-1.79-4.86
				c-2.29-1.52-5.62-2.3-8.42-1.27c-3.57,1.27-4.59,5.35-6.12,8.42c-0.26,2.55,0.25,5.62,1.53,7.65c5.09,5.36,12.24,7.4,17.86,12
				c1.02,3.06-1.03,6.12-3.06,8.67c-0.26,2.81,3.84,2.81,3.32,5.36c-4.09,1.03-8.16,0.26-11.24-2.29c-2.04-1.79-2.55-5.62-5.86-6.13
				c-3.07,0-3.59,4.1-4.85,6.13c-1.03,2.29-0.25,6.12-2.3,7.91l-2.3-0.25c-10.47-3.58-19.91-9.19-29.09-16.09
				c-5.36-4.09-9.2-10.22-13.28-15.58c-2.04-6.38-3.06-15.31-11.23-17.35c-1.79,0.26-4.09,0.5-4.34,2.55l-0.52,2.55
				c-4.08,0-8.17-2.81-12.5-1.29c-2.06,1.29-4.09,2.82-5.36,4.86c-0.26,4.58,5.36,2.8,6.13,6.38c0,3.31,2.55,6.13,4.07,8.42
				c-1.02,1.8-3.06,2.82-4.07,4.6l-2.57,6.38c1.04,2.05,2.31,4.6,4.86,4.86c3.56-1.55,6.63,1.02,10.46,0.51
				c2.3,0.25,6.12-1.8,6.38,2.04c1.28,3.06,0,5.87-0.25,8.68c-3.32,4.85-7.67,8.43-12.51,10.72c-1.53,1.02-1.53,3.31-1.02,4.84
				c1.78,2.57,5.87,1.54,8.68,1.28c5.36-0.25,9.45-3.31,14.55-3.83c1.28,2.55,3.32,5.62,5.88,6.89c4.08,1.02,5.1-4.6,9.18-3.07
				c3.32,2.55,2.3,7.41,5.36,10.46c0.26,1.79-1.53,1.79-2.55,2.56c-4.34,1.52-10.46,0-13.78,3.56c-0.52,2.05,1.27,3.84,2.81,4.61
				c3.82,2.03,8.68,2.56,13.27,3.32c4.08,0.49,8.42-1.03,12.25,0l-1.28,2.03l-12.5,8.41c-5.61,2.32-11.74,3.58-16.84,6.4
				c-7.92,2.04-11.24-7.92-18.38-7.39c-3.06,0-5.1,0.99-7.15,2.8c-1.79,1.78-2.04,4.6-1.53,6.89c1.02,2.29,4.34,1.28,4.34,3.83
				c-0.26,7.17-6.38,12.26-6.89,19.67c-0.26,1.78,0.25,4.05,2.29,4.84c1.28,0.76,3.32,0.25,4.34-0.78c1.53-1.51,1.53-3.82,4.08-4.33
				c4.34,0.52,8.94,0.52,12-2.8c1.53-0.25,3.06,1.27,3.06,2.54c0,1.79,0,3.84,1.78,4.58c6.39,0.26,9.45-6.36,12.26-10.96
				c2.82-0.5,5.87-2.57,8.68-0.77c1.02,4.34-2.55,7.39-3.32,11.48c0.26,1.02,1.53,2.04,2.81,2.29c7.65-1.02,11.99-8.16,16.59-13.78
				c0.77-1.54,1.54-3.58,3.84-3.58c5.86,1.78,7.4-5.35,10.97-7.92h1.54c0.52,1.8-0.76,3.07,0,4.86c2.55,2.8,5.36-0.25,7.92-0.77
				l5.36-3.31c6.38,2.03,13.02,3.56,19.65,5.1c5.36,2.04,0,7.66,3.32,10.98c-0.76,1.78-3.06,2.3-5.36,2.3
				c-11.23,1.51-24.24-1.54-33.18,6.89l-5.36,5.35c-8.42,0.26-12.76,7.4-20.41,8.68c-5.11,3.58-13.02-1.52-16.34,4.34
				c2.55,5.35,8.94,7.14,14.55,8.68c2.31,1.02,6.12-0.26,7.4,2.29c0.26,2.56,0.77,5.62,3.83,6.64c2.29,0.76,3.57-2.54,5.62-0.77
				c2.81,3.83,6.89,5.63,9.19,9.19c-1.8,3.33-6.13,1.28-9.19,1.28l-0.51-0.25c-4.6,0.5-10.46,2.8-14.03-1.55
				c-4.86-3.58-8.69-9.18-15.58-9.18c-3.83,1.02-7.91,2.56-8.68,6.89c-0.51,2.56,2.04,3.58,3.06,5.11c-4.6,3.06-9.44,7.9-7.91,14.02
				c0.51,1.28,1.02,2.82,2.81,2.82c2.3,0,4.08-2.04,6.38-0.78c0.51,3.85-0.51,9.72,4.08,11.51c3.58-0.52,6.13-4.34,9.95-1.54
				c3.82,1.79,6.89-1.79,10.21-2.81c5.36,0,7.4,5.11,9.19,8.93c3.31,2.56,7.91,6.64,12.5,4.09c3.07-4.33-2.8-9.96,3.07-12.76
				c3.57-1.03,6.64,0.24,10.21-0.53c5.62,0.53,12.5,1.03,15.58-5.09l5.1-8.7l1.02-5.35c3.32-1.02,8.17,4.34,9.7-0.76
				c-1.78-5.11-2.29-10.23-1.53-15.83c1.02-3.84,2.81-7.4,5.35-9.97l1.29,0.53c1.53,6.37,1.77,12.77,4.58,18.64
				c-0.51,5.87-3.57,10.97-4.33,16.84c-1.54,6.13-5.87,10.98-11.49,13.79c-1.27,1.02-2.29,2.82-1.53,4.58
				c1.53,2.82,5.36,1.28,8.16,1.79c7.92-1.03,15.31-4.85,20.68-10.72c5.62,1.54,8.42-5.35,13.53-2.29
				c5.36,4.09,15.06-3.06,17.1,5.62c-0.77,4.08,3.06,11.47-3.58,13.27c-6.63-1.02-14.29-9.71-20.92-2.04
				c-1.54,1.52-2.56,3.58-1.54,5.6c1.03,1.8,2.3,4.09,0.51,5.62c-1.79,3.06-4.34,6.89-2.8,10.73c1.27,2.28,3.83,2.28,6.12,1.78
				c3.84-1.52,7.41,1.79,11.23,2.05c3.32,2.56,6.64,5.63,10.98,5.35c1.79-1.01,1.53-3.31,2.81-4.84c2.81-2.3,8.68-1.8,8.68-6.9
				c0.76-3.83,4.02-7.22,7.34-9.27C286.52,411.35,293.99,409.52,295.99,405.9L295.99,405.9L295.99,405.9z"/>
			<path class="st1" d="M179.13,182.46c-0.77,3.32-0.51,6.38,1.53,9.19c5.36,5.87,13.53,7.67,16.84,14.55l-2.04-0.26
				c-6.38-4.07-12.25-8.93-18.89-12c-2.56-1.78-4.34-4.59-3.83-7.91c0.51-2.29,1.27-4.85,3.83-5.35
				C177.86,180.42,179.13,181.18,179.13,182.46L179.13,182.46L179.13,182.46L179.13,182.46z"/>
			<path class="st1" d="M233.76,188.59c1.02,1.53,0.25,4.85,3.31,5.11c0.77,0,1.54,0.76,1.54,1.52c-0.26,2.56-0.77,5.36-1.54,7.91
				c-0.76,2.05-3.57,2.81-3.57,5.62c0,1.54,2.3,2.29,2.55,3.82l-0.25,10.22c-6.38,2.04-3.32,9.95-3.83,14.03
				c-0.76,3.31,0,6.63-0.25,9.95c-1.53,0.77-4.34,0.51-5.1,2.81c0,3.82,1.78,6.9,3.05,9.95c2.3,3.32,7.16,4.09,7.41,8.42
				c-3.31,0.26-6.39-2.04-9.44-3.06c-4.85-2.54-8.17-7.64-10.97-12.25c-0.76-0.77-1.78-0.77-2.55,0.25
				c-0.51,3.07-0.76,7.41-3.57,9.45c-3.32-2.04-3.06-10.21-8.43-7.67c-1.78,10.98-9.18,19.67-15.57,28.85
				c-1.53,0.52-1.79,2.81-3.82,2.29c3.31-8.41,5.87-18.62,2.55-28.07c-0.77-1.79-2.55-1.27-3.83-0.5c-1.53,1.01-2.29,3.58-4.59,2.8
				c-1.79-2.8,1.79-7.15-2.31-8.93c-3.57,0.77-5.6,3.82-8.67,5.37c-7.65,4.6-16.85,6.37-26.04,6.62c-1.78,0-3.31-0.5-4.33-1.27
				c2.29-2.3,5.61-2.81,8.42-4.34c10.72-6.38,17.87-18.11,26.54-26.8c-0.76-3.81-4.09-8.41-0.5-11.99c2.8-0.26,3.82,3.06,6.12,3.83
				c3.84,2.05,8.68,3.31,12.77,1.53c3.57-0.77,6.13-4.09,6.38-7.41c0.26-1.53-0.77-2.29-1.79-2.81c-1.02,0-2.3,0-2.8-1.02
				c0-1.79,1.28-3.07,2.8-3.31c4.34,0.25,8.68,9.44,11.74,1.78c1.79-6.12-3.83-10.72-8.16-14.54c-1.02-1.27-1.79-2.56-1.28-4.34
				c3.32-2.04-0.77-4.85,1.78-7.15c4.34-3.31,10.98-1.28,15.57-4.59C220.99,180.92,226.61,186.8,233.76,188.59L233.76,188.59
				L233.76,188.59L233.76,188.59z"/>
			<path class="st1" d="M112.26,186.29c0.26,1.28,0.51,2.55,0,3.57c-1.02,1.03-2.29,0-3.06-0.51c-1.53-1.28-2.29-3.32-1.79-4.6
				C107.66,179.39,112.26,184.25,112.26,186.29L112.26,186.29L112.26,186.29L112.26,186.29z"/>
			<path class="st1" d="M108.68,193.94c6.89,3.33,12,10.21,16.85,16.08c10.98,9.19,22.71,17.1,35.99,20.67
				c0.51,2.05-1.02,3.84-2.55,5.37c-4.34,4.59-7.92,9.96-12.51,14.04c-1.02,0.25-2.03,0.25-2.8-0.26c-4.6-4.34-4.09-13.28-12-13.53
				c-2.55-0.26-4.59,3.06-7.15,1.28c-2.55-2.05,0.77-6.64-3.06-7.66c-4.35,1.78-7.91,6.63-13.02,5.87
				c3.32-5.62,9.19-11.74,6.13-19.14c-0.77-3.33-2.81-6.9-5.87-8.16c-3.06-0.26-4.85,3.32-7.91,1.79c-1.28-2.81-6.89-1.54-4.6-5.11
				c1.79-3.07,9.45-3.57,6.39-8.68c-2.04-2.81-6.9-1.28-7.41-5.11c0.51-2.29-1.53-5.36,0-6.89
				C101.29,183.99,105.11,190.12,108.68,193.94L108.68,193.94L108.68,193.94L108.68,193.94z"/>
			<path class="st1" d="M332.78,197.01c0.76,4.08-3.06,6.63-2.04,10.46c1.02,2.05,4.34,2.55,4.09,4.85
				c-9.7,0.26-11.49,13.02-21.19,12.77c-4.09-0.76-7.14-5.11-12-3.07c-12.5,5.87-26.02,14.55-29.34,29.36
				c-1.53,5.62-1.02,11.99,3.06,16.58c1.02,0.5,2.3,0.5,3.32,0c2.54-4.58,4.6-10.7,10.72-11.99c3.58-1.28,7.14-2.56,10.47-4.59
				c0.51,0,1.27-0.52,1.53,0.5c-1.53,4.34-3.57,9.7-8.42,11.23c-3.58,3.06-6.9,6.65-7.4,11.25c-0.26,2.29-0.51,5.35,1.27,7.13
				c1.79,1.54,3.83-0.5,5.36-1.52c6.64-8.16,16.59-9.18,26.55-9.7c0.51,0.77-0.77,2.29-1.79,2.54c-8.43,2.82-16.34,9.71-19.14,18.12
				c0.25,1.28,1.02,2.3,2.04,2.81c4.08-0.5,7.4-3.05,11.74-2.54c1.01,2.81-3.32,2.81-4.34,5.1c-7.91,6.9,0,22.47-13.27,24.76
				c-3.82,1.05-3.31,5.63-5.86,7.91c-4.35,5.63-11.49,7.15-18.64,6.4c-5.11,0.5-9.44-6.89-13.78-2.05
				c0.51,5.11,4.59,7.91,7.14,12.25c6.39,6.13,15.31,6.64,23.48,9.19c1.02,0.25,1.79,1.02,2.3,2.04c0,1.79-2.3,1.28-3.83,1.03
				c-5.1,0.76-10.97,1.52-16.07-0.53c-0.77-0.25-1.53,0.78-1.79,1.54c0.77,5.63,7.14,7.66,10.97,10.72
				c3.82,1.79,8.93,1.27,10.72,5.88v5.86c1.79,2.82,2.81,6.4,2.04,9.97c-3.58,4.07-6.13,9.43-3.32,14.8c-1.53,1.27-3.83,0-5.35,1.03
				c-1.79,3.8-6.64,4.32-7.92,8.15c-0.26,3.07-2.04,5.87-5.1,6.38c-2.55-0.25-4.34,1.02-6.64,0.53c-1.54-1.8,0.76-4.62-2.05-5.63
				c-3.57-0.77-4.84,4.85-8.68,2.81c-1.78-1.02-3.57-1.8-4.34-3.58c-0.25-2.29,2.05-3.06,3.58-4.08c8.42-1.02,19.4-2.56,22.46-11.74
				c0.51-4.33-1.53-7.91-0.76-11.74c-1.27-4.86-6.12-7.93-10.97-8.45c-4.6-1.26-9.7,0.52-13.01-2.8c-1.28-1.03-2.81-2.04-4.34-1.27
				c-1.28,0.24-1.78,2.03-3.32,1.27c-1.28-1.27-3.06-3.06-4.59-1.27c-3.06,6.12-7.66,12.76-15.06,14.04
				c-1.01-1.79,1.02-3.83,1.8-5.87c2.28-4.86,4.07-10.21,5.09-15.56c2.04-2.82,4.34-6.4,2.8-10.21c-3.06-8.68-6.64-18.13-4.08-28.09
				c1.79-11.74-1.02-22.7-9.7-30.63c-4.85-2.8-8.93-7.64-14.8-8.66c-3.84-1.28-9.44,0.24-11.49-3.58c0.51-4.09,4.85-6.37,6.63-9.96
				l6.64-10.2c2.81-0.52,2.04,3.56,4.85,3.31c5.36,0,5.11-8.93,10.72-6.12c2.55,3.58,6.64,4.84,9.19,7.9
				c3.57,14.56,8.93,28.59,18.89,40.33c7.66,9.96,19.4,17.36,31.65,13.78c3.32-2.8,7.91-5.87,8.69-10.7
				c3.31-23.23-26.29-34.71-24.01-57.69c2.04-21.7,24.25-33.43,41.86-41.86c9.71-5.11,21.96-12,22.72-24.51
				c-0.25-1.27,0-2.04,0.51-3.31C332.78,189.35,332.52,193.7,332.78,197.01L332.78,197.01L332.78,197.01L332.78,197.01z"/>
			<path class="st1" d="M174.28,265.92c2.81,0.52,6.13-3.06,7.4,0.78c-0.51,5.34-0.76,11.47-3.32,16.08
				c-2.56,2.54-6.38,0.5-9.19,1.78c-3.84,1.02-4.6,10.46-9.44,4.33c-2.04-0.76-3.32,1.28-4.34,2.3c-2.04,4.86-4.09,9.7-7.65,13.52
				c-0.77,0.5-2.05,1.03-2.81,0.25c-0.5-3.31,2.04-9.18-2.81-10.21c-2.04-0.24-3.83,1.03-5.61,1.8c-3.84-0.26-8.94-0.26-10.98,3.56
				c-0.51,1.79-0.76,4.34-3.06,4.6c-2.29-1.02-5.36-1.79-6.37-4.85c-1.03-0.77-2.55-1.79-3.83-0.52c-2.04,2.05-2.81,5.62-6.13,5.62
				c-2.55,0-4.84-0.76-6.89-1.78c0.51-5.88,7.14-6.64,11.23-8.94c8.16-1.79,14.3-6.89,22.46-8.42
				c12.76-4.85,22.97-14.29,32.93-23.99c1.54-0.5,3.07-1.27,4.59-1.27C171.48,262.61,171.48,265.41,174.28,265.92L174.28,265.92
				L174.28,265.92L174.28,265.92z"/>
			<path class="st1" d="M112.01,289.4c-2.3,1.52-5.88,2.54-8.68,1.28c-1.54-1.54-0.76-4.34-1.02-6.64c0.77-1.8,3.06-1.27,4.34-0.52
				C108.43,285.32,112.01,286.34,112.01,289.4L112.01,289.4L112.01,289.4L112.01,289.4z"/>
			<path class="st1" d="M221.24,322.33c-0.26,3.82-0.5,6.62-2.55,9.95c-4.34,4.09-8.43,9.44-9.96,15.56c0,4.34-0.51,8.44-0.77,12.5
				c-1.28,1.03-2.29-0.52-3.06-1.27c-2.04-3.06-1.53-9.95-6.89-8.94c-2.81,3.09-5.62,7.68-3.83,11.75c2.3,3.32,6.89,5.88,4.33,10.23
				c-3.82,2.04-2.8,7.91-7.9,8.41c-7.66,1.03-15.57-2.3-21.69,3.07c-2.05,1.78-3.33,4.33-4.34,6.89c-3.57,0.5-2.55-4.34-4.34-6.38
				c-1.27-2.04-3.83-0.77-5.61-1.78c-2.81-1.05-5.62-4.11-8.94-1.8c-2.81,1.54-6.12,5.1-9.44,2.3l-4.6-1.27
				c-0.25-1.54,1.53-3.58,0.26-5.11l-8.93-4.09c-0.52-0.77,0.25-1.78,0.77-2.3c7.4-4.84,15.82,0.77,24.49-0.77
				c5.62-2.01,10.98-0.99,17.1-0.76c3.33,0.26,7.41,1.02,9.45-1.78c1.27-1.8,1.79-4.33,0.52-6.4c-2.55-5.6-10.72-6.88-11.74-13.52
				c-0.52-1.27-1.53-2.54-2.81-3.06c-2.04-0.74-3.32,1.52-5.36,0.52c-0.51-1.79-1.02-4.08-3.07-4.86c-3.82,0-8.41,1.79-11.73-0.76
				c0.51-2.04,3.06-1.54,4.6-2.56c5.36-1.02,9.95-4.6,14.8-6.89l7.41-1.03c7.4-11.99,22.46-11.21,35.22-11.72l12.51-3.83
				C219.46,313.66,220.48,318.76,221.24,322.33L221.24,322.33L221.24,322.33L221.24,322.33z"/>
			<path class="st1" d="M139.82,363.69c-2.29,1.52-5.35,0.5-7.91,0.25c-1.53-1.27-2.05-4.11-1.79-5.6
				C133.95,356.52,138.04,360.35,139.82,363.69L139.82,363.69L139.82,363.69L139.82,363.69z"/>
			<path class="st1" d="M253.91,405.03c0.26,1.27-1.53,1.02-2.04,1.02c-1.02,0.25-1.02-0.5-1.54-1.02
				C250.6,402.74,253.4,404.01,253.91,405.03L253.91,405.03L253.91,405.03L253.91,405.03z"/>
			<path d="M220.74,192.66c0.5,1.79-0.76,3.33-2.56,3.58c-3.06,0.26-5.87,0-8.16-2.3c-2.3-1.78-1.03-4.85-0.51-7.14
				c1.02-1.27,2.8-1.27,4.08-0.51C216.4,187.82,218.7,190.37,220.74,192.66L220.74,192.66L220.74,192.66L220.74,192.66z"/>
			<path d="M235.28,197.01c0,2.04-1.03,4.08-2.3,5.61c-1.27,0.76-2.3,0.26-2.8-1.02c-0.52-2.3,0.5-4.34,1.78-5.62
				C232.98,195.22,235.03,195.49,235.28,197.01L235.28,197.01L235.28,197.01L235.28,197.01z"/>
			<path d="M218.94,215.39l-0.24,4.33c-4.34,4.86-4.34,12.25-10.98,15.05c-1.79,0.26-3.32-0.76-3.57-2.55
				c-0.26-2.81-0.76-6.38,0.26-9.19c2.81-1.53,3.57,4.09,5.87,1.55c1.02-4.1,4.34-7.16,6.38-10.48
				C217.67,213.85,218.44,214.63,218.94,215.39L218.94,215.39L218.94,215.39z"/>
			<polygon points="23.91,135.96 413.61,135.96 413.61,162.79 23.91,162.79 23.91,135.96 			"/>
			<polygon class="st3" points="23.91,135.96 413.61,135.96 413.61,162.79 23.91,162.79 23.91,135.96 			"/>
			<polygon class="st1" points="313.67,140.77 357.93,140.77 357.93,157.98 313.67,157.98 313.67,140.77 			"/>
			<polygon class="st1" points="217.42,140.77 261.67,140.77 261.67,157.98 217.42,157.98 217.42,140.77 			"/>
			<polygon class="st1" points="120.49,140.76 164.74,140.76 164.74,158 120.49,158 120.49,140.76 			"/>
			<polygon class="st1" points="28.59,140.76 68.83,140.76 68.83,158 28.59,158 28.59,140.76 			"/>
			<path d="M389.1,39.78c3.05,3.81,1.02,9.16,1.79,13.74c3.3,2.8,10.43-0.25,11.19,6.11c0.5,2.54-1.02,4.33-2.3,5.86
				c-2.29,2.28-6.36,0-8.39,2.54c-0.76,7.64,0,16.02,0,24.69c2.29,1.52,5.35,1.27,7.89,2.53c1.27,1.53,2.54,3.07,2.54,5.1
				c-0.26,2.04-1.52,3.56-3.57,4.32c-2.02,1.02-5.59,0-6.61,2.8c-1.01,4.07,0.26,8.65-0.51,12.97c-2.8,1.28-6.1,1.28-9.16,1.28
				l-30.03-0.26c-2.79,1.52-5.84,4.32-9.65,2.8c-6.37-4.07-15.02-2.8-22.4-3.06l-22.39-0.25c-4.07-3.56-1.02-9.67-2.29-13.99
				c-1.53-2.55-5.59-1.54-8.14-2.8c-2.29-1.01-2.8-3.56-2.55-5.6c0.26-2.54,2.55-3.82,4.84-4.33c1.79-1.01,5.09,0.77,5.85-2.02
				c0-7.9-0.51-15.53-0.25-22.9c-0.51-4.58-6.62-1.78-9.16-3.56c-2.29-1.53-2.54-4.32-2.04-6.87c2.04-4.32,7.12-3.3,10.94-4.58
				l0.51-1.27l0.5-13.23l1.28-1.02l34.86,0.76c4.07,0,7.63,1.78,11.45,3.05c7.38-5.6,18.31-2.8,27.23-4.32
				C376.63,39.53,382.99,38.51,389.1,39.78L389.1,39.78L389.1,39.78L389.1,39.78z"/>
			<path class="st4" d="M389.1,39.78c3.05,3.81,1.02,9.16,1.79,13.74c3.3,2.8,10.43-0.25,11.19,6.11c0.5,2.54-1.02,4.33-2.3,5.86
				c-2.29,2.28-6.36,0-8.39,2.54c-0.76,7.64,0,16.02,0,24.69c2.29,1.52,5.35,1.27,7.89,2.53c1.27,1.53,2.54,3.07,2.54,5.1
				c-0.26,2.04-1.52,3.56-3.57,4.32c-2.02,1.02-5.59,0-6.61,2.8c-1.01,4.07,0.26,8.65-0.51,12.97c-2.8,1.28-6.1,1.28-9.16,1.28
				l-30.03-0.26c-2.79,1.52-5.84,4.32-9.65,2.8c-6.37-4.07-15.02-2.8-22.4-3.06l-22.39-0.25c-4.07-3.56-1.02-9.67-2.29-13.99
				c-1.53-2.55-5.59-1.54-8.14-2.8c-2.29-1.01-2.8-3.56-2.55-5.6c0.26-2.54,2.55-3.82,4.84-4.33c1.79-1.01,5.09,0.77,5.85-2.02
				c0-7.9-0.51-15.53-0.25-22.9c-0.51-4.58-6.62-1.78-9.16-3.56c-2.29-1.53-2.54-4.32-2.04-6.87c2.04-4.32,7.12-3.3,10.94-4.58
				l0.51-1.27l0.5-13.23l1.28-1.02l34.86,0.76c4.07,0,7.63,1.78,11.45,3.05c7.38-5.6,18.31-2.8,27.23-4.32
				C376.63,39.53,382.99,38.51,389.1,39.78L389.1,39.78L389.1,39.78L389.1,39.78z"/>
			<path d="M264.26,38.86c1.53-0.26,3.05,1.02,4.33,1.78c1.27,4.83-0.25,8.9,1.02,13.48c3.3,1.27,8.14,0.26,9.92,4.33
				c0.77,1.78,0.77,4.84-0.51,6.36c-2.55,3.31-8.39,0.25-10.18,4.07c-0.51,9.16-0.76,15.52,0,24.17c2.55,2.54,7.13,0.51,9.41,3.82
				c1.27,1.53,1.78,3.3,1.27,5.34c-2.04,3.31-6.36,3.31-9.92,4.08c-1.53,1.27,0,3.56-0.76,5.34c-1.27,3.3,1.78,7.38-2.04,9.42
				c-10.43,1.53-20.35-0.52-31.04,0.25l-10.17,0.26c-2.8,1.78-6.11,4.58-9.67,2.54l-6.36-2.8c-7.64,0.26-14.76-0.25-22.39,0
				c-5.09-0.25-12.21,2.04-15.52-2.79c0-4.07,0.76-8.15-0.25-12.21c-3.82-1.28-10.18,0.5-12.21-4.33c-0.51-1.53,0-3.56,0.51-5.09
				c2.8-4.07,9.16-0.52,11.96-3.82l-0.25-11.2c0.76-5.34-0.25-9.66-0.25-14.75c-3.81-1.53-10.44,0.51-11.2-5.35
				c-0.51-3.05,1.27-5.6,4.07-6.1c2.54-0.76,6.11,0.5,7.38-1.78l0.76-11.96c3.06-5.09,10.44-2.04,15.01-2.8l23.15,0.25
				c3.56,0.51,6.88,4.07,10.43,1.78C234.49,35.55,250.01,40.39,264.26,38.86L264.26,38.86L264.26,38.86L264.26,38.86z"/>
			<path class="st4" d="M264.26,38.86c1.53-0.26,3.05,1.02,4.33,1.78c1.27,4.83-0.25,8.9,1.02,13.48c3.3,1.27,8.14,0.26,9.92,4.33
				c0.77,1.78,0.77,4.84-0.51,6.36c-2.55,3.31-8.39,0.25-10.18,4.07c-0.51,9.16-0.76,15.52,0,24.17c2.55,2.54,7.13,0.51,9.41,3.82
				c1.27,1.53,1.78,3.3,1.27,5.34c-2.04,3.31-6.36,3.31-9.92,4.08c-1.53,1.27,0,3.56-0.76,5.34c-1.27,3.3,1.78,7.38-2.04,9.42
				c-10.43,1.53-20.35-0.52-31.04,0.25l-10.17,0.26c-2.8,1.78-6.11,4.58-9.67,2.54l-6.36-2.8c-7.64,0.26-14.76-0.25-22.39,0
				c-5.09-0.25-12.21,2.04-15.52-2.79c0-4.07,0.76-8.15-0.25-12.21c-3.82-1.28-10.18,0.5-12.21-4.33c-0.51-1.53,0-3.56,0.51-5.09
				c2.8-4.07,9.16-0.52,11.96-3.82l-0.25-11.2c0.76-5.34-0.25-9.66-0.25-14.75c-3.81-1.53-10.44,0.51-11.2-5.35
				c-0.51-3.05,1.27-5.6,4.07-6.1c2.54-0.76,6.11,0.5,7.38-1.78l0.76-11.96c3.06-5.09,10.44-2.04,15.01-2.8l23.15,0.25
				c3.56,0.51,6.88,4.07,10.43,1.78C234.49,35.55,250.01,40.39,264.26,38.86L264.26,38.86L264.26,38.86L264.26,38.86z M92.39,41.66
				c12.47-5.35,26.46-1.53,40.2-2.29c3.56,0.76,8.9-1.78,11.19,2.04c0,4.07,0,7.88,0.25,11.96c1.27,2.8,5.34,0.51,7.64,2.04
				c1.27,0.76,2.8,1.53,3.06,3.05c0.76,1.78,0.26,3.81-0.76,5.6c-2.55,2.8-5.85,1.79-9.16,2.55l-1.02,1.52
				c0.51,7.38-1.52,13.99,0,21.11c-0.25,1.53-0.76,3.56,1.02,4.58c3.56,0,7.13,0,9.67,2.29c1.02,1.79,1.02,4.07,0.51,6.1
				c-1.53,7.64-13.23-1.02-11.97,7.89c0,3.31,0.76,7.88-0.5,10.94c-13.74,0-27.73-1.02-40.71-0.26c-2.29,2.04-5.35,3.31-8.65,3.57
				c-2.8-0.51-4.84-2.04-7.12-3.57c-12.47-0.51-24.69-0.51-36.65-0.76c-3.81-3.31-1.01-8.66-2.28-13.49
				c-2.04-2.28-5.09-0.51-7.38-1.78c-1.78-0.25-2.29-2.03-3.31-3.3c0-2.8,0-5.1,2.04-6.87c2.03-1.53,4.83-1.27,7.38-1.53l1.27-1.27
				c-0.76-8.39,1.27-16.28-0.51-25.18c-1.27-1.79-3.56-0.26-5.09-1.53c-2.29-0.51-4.57-1.27-5.34-3.82
				c-0.5-2.04-1.01-4.07,1.03-5.85c2.8-3.05,7.63,0.51,10.18-2.55l1.02-12.21c2.04-3.56,6.88-1.78,10.43-1.78
				c6.1-1.27,13.74-0.26,20.36,0C83.74,39.11,88.32,39.88,92.39,41.66L92.39,41.66L92.39,41.66L92.39,41.66z"/>
			<path class="st1" d="M90.61,44.84l1.02,2.29c0.51,17.05,0.51,34.35,0.51,52.16l-0.51,6.62c-4.33,0.25-8.66-2.04-13.48-1.53
				c-4.84-0.51-10.18,0.51-14.5-0.77c-2.55-5.85-0.76-11.71-1.27-18.06c0.25-12.72,0.51-28.24,0.51-41.98
				c0-1.02,1.26-1.53,2.03-1.78C73.81,42.55,83.49,40.26,90.61,44.84L90.61,44.84L90.61,44.84z"/>
			<path class="st1" d="M56.76,43.31c-2.29,1.78-5.34,5.09-4.32,8.14c1.01,21.38,0,40.45,1.01,60.55l1.79,2.04
				c9.92,0,20.86-1.02,30.53,0.77c0.51,0.25,0.51,1.01,0.26,1.53c-2.55,1.01-5.61,0.5-8.4,0.5l-25.95-0.5
				c-1.78-1.53-1.02-5.1-1.02-7.13c0-2.54,0.76-5.6-2.04-7.12c-3.56-0.76-7.13,0.26-9.42-2.55c1.78-5.09,9.92-1.02,11.45-6.62
				c0.76-9.42-0.76-18.83-0.25-27.73c-1.02-5.08-6.62-3.56-10.17-4.33c-0.51-0.51-1.27-1.27-1.03-2.29
				c3.06-3.05,9.16,0.51,11.45-3.82c1.02-4.07,0.25-7.88,0.76-11.7c1.28-1.28,3.57-1.28,5.34-0.77V43.31L56.76,43.31L56.76,43.31z"
				/>
			<path class="st1" d="M128.52,43.56c0,20.61,0,40.2-0.26,60.3c-10.18,1.02-21.62-0.76-31.8,2.04c-2.29-2.04-0.51-5.34-1.02-8.15
				c-0.51-6.61,0-13.99-0.26-20.87c0.26-9.92-0.5-21.12,0.26-30.79c1.53-3.04,5.09-4.07,8.4-4.07l23.91,0.26L128.52,43.56
				L128.52,43.56L128.52,43.56z"/>
			<path class="st1" d="M140.23,43.31c0.76,4.07-1.01,9.41,1.52,13.48c2.54,1.53,6.37,0.76,8.91,1.28c1.01,1.02,0.76,2.55,0.25,3.56
				c-2.79,2.8-8.65-0.77-10.17,3.81c0,9.92-0.51,19.6,0.25,29.77l1.53,1.27c3.3,0.51,7.38-0.76,9.67,1.78
				c0.25,1.53,0,3.06-1.52,3.57c-3.31,0.76-8.15-1.02-9.93,2.54c-0.77,4.07,0.51,8.14-0.77,12.21l-1.78,0.76l-35.88-0.51
				c-0.76-0.5,0-1.02,0.25-1.52l3.56-1.28l29.01,0.26c3.06-0.76,3.06-4.57,3.31-6.87c-0.25-14.25,0-26.72-0.25-40.45
				c-0.25-6.87,1.02-13.48-0.51-20.1c-0.26-1.53-2.55-2.55-2.8-4.33C136.41,41.78,139.21,41.78,140.23,43.31L140.23,43.31
				L140.23,43.31L140.23,43.31z"/>
			<path class="st1" d="M304.08,43.06c-0.51,2.03-3.04,3.55-3.81,5.59c0.26,20.87,0,43.51,0.77,65.14l1.77,1.02
				c11.2,0.25,23.16-2.29,32.83,2.3c0.51,0.24,0.25,0.24,0,0.5c-12.22-0.26-24.43,0.76-36.38-0.26l-1.02-1.27
				c-0.51-4.58,0.5-8.9-1.53-12.98c-2.8-2.54-10.94,0.76-8.91-5.09c3.05-2.29,7.89,0.76,9.67-3.05c0-10.69,0.51-20.11-0.25-30.03
				c-2.29-3.05-6.62-1.02-9.67-1.78c-1.02-1.01-1.78-2.54-0.76-3.81c3.31-2.8,12.97,0.76,11.2-7.13c1.01-3.31-1.53-9.66,3.06-9.92
				C302.05,42.29,303.32,42.03,304.08,43.06L304.08,43.06L304.08,43.06L304.08,43.06z"/>
			<path class="st1" d="M387.03,43.56c1.02,4.83-1.01,9.67,1.78,13.99c3.05,0.77,7.88-1.01,9.42,2.04c-0.26,6.1-8.65,1.27-10.43,6.1
				c0.77,9.67-0.76,17.56,0.25,27.99c-1.02,0.76-1.27,1.78-0.51,2.8c2.8,2.29,6.36-1.52,9.15,1.02c1.78,0.51,0.76,2.04,0.76,3.06
				c-2.28,3.3-7.88-0.51-9.41,3.82l-0.51,12.73l-1.78,0.75l-33.84-0.25c-0.51-0.52-0.25-0.76,0.25-1.02l4.07-1.52h25.69
				c1.27-0.25,3.06-1.27,3.06-3.06c-0.26-20.1-0.51-40.96-0.51-62.84l-3.05-6.1C382.7,41.78,386.27,41.52,387.03,43.56L387.03,43.56
				L387.03,43.56L387.03,43.56z"/>
			<path class="st1" d="M307.9,51.45c0,17.81,0,36.63,0,54.71c-0.51,1.52-2.3,2.29-3.32,3.3l-1.02-0.76
				c-0.25-5.86,0.25-12.47-0.25-18.06v-4.33c-0.26-11.96-0.26-25.19,0.25-37.41c1.02-1.02,2.04-3.05,3.32-3.56
				C307.9,47.63,307.39,49.16,307.9,51.45L307.9,51.45L307.9,51.45L307.9,51.45z"/>
			<path class="st1" d="M382.19,48.66c-0.51,14.25-0.25,27.72,0.26,41.21c-0.26,6.36-0.26,11.96-0.26,17.81
				c-0.25,0.51-0.25,0.76-0.75,1.02c-4.33-1.77-2.81-6.61-3.06-10.44c0.25-5.34-0.5-11.44,0.52-16.79l-0.77-1.78l0.25-33.33
				C379.4,44.07,381.44,47.39,382.19,48.66L382.19,48.66L382.19,48.66L382.19,48.66z"/>
			<path class="st1" d="M135.13,47.89c-0.25,20.61,0.25,40.97-0.51,59.54c-0.51,1.02-1.52-0.25-2.29-0.76
				c-1.27-3.06-0.25-6.87-0.25-9.92c-0.76-16.54,0-33.34,0-50.13C133.1,45.35,134.62,46.87,135.13,47.89L135.13,47.89L135.13,47.89
				L135.13,47.89z"/>
			<path class="st1" d="M344.79,73.84c-0.51,1.27-2.79,1.27-4.07,0.76l-1.28-0.51c0.76-2.8,0-6.11,2.3-8.15
				C344.03,67.48,343.77,71.04,344.79,73.84L344.79,73.84L344.79,73.84L344.79,73.84z"/>
			<path class="st1" d="M132.34,110.23c-0.76,1.52-3.06,0.76-4.58,1.27h-8.14c-6.62-0.26-13.23-0.75-19.08,0.5
				c-1.01-0.25-2.03-1.01-2.03-2.28c0.76-2.3,3.56-1.53,5.59-2.3c7.88,0.25,17.3-0.25,24.94,0
				C130.3,107.93,131.57,108.95,132.34,110.23L132.34,110.23L132.34,110.23L132.34,110.23z"/>
			<path class="st1" d="M89.59,109.21c0.25,1.27-1.02,2.54-2.3,3.05c-8.14-2.29-17.05-0.76-25.69-1.78l-0.25-0.25
				c0.51-1.53,1.78-2.8,3.56-2.8C73.56,107.43,81.96,107.43,89.59,109.21L89.59,109.21L89.59,109.21L89.59,109.21z"/>
			<path class="st1" d="M339.45,109.97c0.76,0.51,0.76,1.78,0,2.03c-3.05,3.57-6.86-0.76-10.94,0c-6.61-0.76-13.99,0-20.61-0.76
				c1.78-5.59,9.66-2.29,13.99-3.3C327.75,108.7,334.36,106.93,339.45,109.97L339.45,109.97L339.45,109.97L339.45,109.97z"/>
			<path class="st1" d="M376.86,108.7c1.27,0.76,2.54,2.04,2.8,3.3c-10.43,1.28-20.61-1.26-30.53,1.53
				c-1.53-0.25-2.04-2.04-1.53-3.05c2.03-2.29,5.34-1.78,8.39-2.29L376.86,108.7L376.86,108.7L376.86,108.7z"/>
			<path class="st1" d="M97.99,114.04c0.51,2.04,0.25,4.58-1.53,5.6c-1.02,1.28-3.05,1.53-4.58,0.77c-1.53-0.25-1.78-2.04-2.04-3.3
				c-0.51-2.81,2.29-3.83,3.82-5.87C95.69,111.5,96.97,112.77,97.99,114.04L97.99,114.04L97.99,114.04L97.99,114.04z"/>
			<path class="st1" d="M346.83,115.57c0.26,2.29,0.26,5.6-2.8,5.6c-2.03,0.25-3.82-0.76-4.33-2.56c-0.51-2.53,1.02-4.83,2.81-5.84
				C344.79,112.51,345.81,114.3,346.83,115.57L346.83,115.57L346.83,115.57L346.83,115.57z"/>
			<path class="st1" d="M253.83,44.07c-0.25,19.84,0.26,40.2-0.25,60.04l-1.02,0.51c-10.93,1.02-21.62-1.79-31.55,1.78
				c-1.78-1.01-0.25-4.06-0.76-5.85c0-17.3,0-34.86,0-52.93c0-1.78,1.27-3.3,2.8-3.81c2.8-2.03,6.61-1.27,10.18-1.78l20.1,0.51
				L253.83,44.07L253.83,44.07L253.83,44.07z"/>
			<path class="st1" d="M265.8,43.56c0,4.58-0.25,8.65,0.76,13.23c3.05,2.8,11.7-1.27,9.91,5.6c-2.8,1.78-6.61,0.51-9.66,1.02
				l-0.76,1.02c-1.27,10.18,0.76,20.61,0,29.77c0.26,1.02,0.76,2.8,2.29,3.05c2.8,0.26,7.12-1.77,8.13,1.79
				c-0.5,6.11-8.39,0.51-10.43,5.34c-0.76,4.58,1.27,8.64-0.5,12.97l-1.28,0.77c-12.98-0.26-25.7-0.26-37.91-0.52
				c-0.51-0.26-0.26-1.02,0.25-1.27l2.28-1.27c10.18-1.03,21.38,0,32.06-1.03c1.52-0.25,2.8-1.52,2.54-3.05
				c0-19.34,0.26-39.44,0.26-61.07c-0.51-3.05-3.56-4.84-4.07-7.63C261.46,42.29,264.77,41.27,265.8,43.56L265.8,43.56L265.8,43.56
				L265.8,43.56z"/>
			<path class="st1" d="M181.31,42.55c-0.51,2.29-2.54,3.05-3.56,4.83c-1.53,4.07,0.25,8.15-0.51,12.47c0.25,17.56,0,34.1,0.25,51.4
				c0,1.28,1.01,2.8,2.29,3.06l27.23,0.51c1.52,0.25,3.3,0.76,4.31,1.78c-0.5,1.53-2.54,1.02-3.82,1.27
				c-10.17-0.25-21.11,0.51-31.04-0.75l-1.02-0.77c-0.25-4.58,0.25-9.41-1.78-13.5c-3.05-1.26-6.87,0-10.17-1.01
				c-1.53-0.76-1.02-2.8,0-3.82c3.31-1.78,9.66,1.02,11.45-3.56c-0.26-9.92,0.51-19.33,0-29.52c-2.8-4.07-8.65-0.26-11.19-4.07
				c1.02-5.85,9.15-0.76,11.45-5.59l0.76-11.96C177.5,41.78,179.54,42.29,181.31,42.55L181.31,42.55L181.31,42.55L181.31,42.55z"/>
			<path class="st1" d="M185.14,46.1c0.76,17.56-1.02,33.33,0,50.89c-1.53,4.07,1.78,9.93-4.08,10.94
				c-1.01-17.55-0.25-36.39-0.76-55.47c-0.51-3.05,1.28-5.85,3.83-7.38L185.14,46.1L185.14,46.1L185.14,46.1z"/>
			<path class="st1" d="M260.7,49.16c-0.25,19.34,0.52,40.2-0.76,59.03c-1.02,0.26-2.29-1.01-2.54-2.03
				c-0.25-7.9-1.01-15.78-0.51-24.18c0.51-10.94-0.76-23.92,0.51-35.11C258.66,46.1,260.7,47.63,260.7,49.16L260.7,49.16
				L260.7,49.16L260.7,49.16z"/>
			<path class="st1" d="M214.14,109.21c1.02,0.25,2.3,1.27,1.53,2.54l-2.03,1.78c-8.91-3.31-20.1-1.02-29.51-2.54
				c0.76-1.27,1.52-2.55,2.8-3.56C195.81,108.19,205.49,106.93,214.14,109.21L214.14,109.21L214.14,109.21L214.14,109.21z"/>
			<path class="st1" d="M254.6,107.93c1.27,0.76,2.8,2.04,2.8,3.3l-1.27,0.51c-10.68,0.25-21.63-1.27-31.55,1.27
				c-1.53,0.26-3.31,0-3.56-1.78c1.02-2.29,4.07-3.05,6.61-3.3C236.78,107.18,245.69,107.93,254.6,107.93L254.6,107.93L254.6,107.93
				L254.6,107.93z"/>
			<path class="st1" d="M221.77,116.33c0,2.03-0.25,4.58-2.55,4.58c-1.77,0.25-4.57,0-4.57-2.55c0.5-1.78,2.03-3.3,3.81-4.33
				C220.24,113.53,221.26,115.32,221.77,116.33L221.77,116.33L221.77,116.33L221.77,116.33z"/>
			<path class="st1" d="M216.68,84.27c1.02-10.18,0.25-21.63,0.52-31.3c0-3.06,0.25-6.61-2.04-8.65c-7.38-3.31-17.3-1.53-25.7-2.03
				c-0.51,0.26-1.53-0.26-1.27,0.77c0,20.09-0.25,38.92-0.25,58.77l0.5,2.29c6.12,1.02,12.21,0.51,18.59,0.51
				c3.3,0.51,6.61,1.53,9.66,2.04c0.25-6.87,0.77-12.22,0.25-18.83L216.68,84.27L216.68,84.27L216.68,84.27z"/>
			<path d="M214.14,83.5c-3.05-2.54-3.82-6.36-6.36-9.41c1.02-1.53,2.8-1.79,4.08-3.06c2.03-2.03,4.07-4.83,3.05-7.89
				c-0.25-2.54-1.53-5.09-4.06-6.36c-5.35-2.03-12.22-1.27-17.56-0.76c-1.02,0.51-1.27,1.52-0.51,2.29c2.03,0.76,2.8,2.29,3.05,4.07
				c-0.25,6.87-0.25,13.74-1.02,20.62l-2.8,3.05c2.8,2.54,6.62,0.52,10.7,1.27c1.01-1.78-1.79-3.06-2.3-5.09
				c0.51-2.04,0-4.84,1.28-6.62c3.81,3.31,5.08,8.65,9.66,11.71l5.98,0.42l-0.15-3.23C216.4,85.03,214.9,83.76,214.14,83.5
				L214.14,83.5L214.14,83.5z M206.24,71.04c-1.77,0-4.56,1.27-5.08-1.01c0.25-3.31-1.27-7.64,0-10.69
				c2.29-1.79,5.86-1.02,7.63,1.27c1.02,1.78,1.02,4.06,1.02,6.1C208.79,68.5,208.29,70.53,206.24,71.04L206.24,71.04L206.24,71.04z
				"/>
			<path class="st1" d="M375.58,49.42c0-2.29,0.25-5.09-1.02-7.12l-9.16-0.26c-6.62,1.02-13.99-1.02-19.33,2.29
				c-2.54,3.06-1.27,6.61-1.78,10.18c0.63,2.15,1.24,4.33,1.85,6.5l-1.17,2.7l-3.93-0.71l-1.01-2.21c0.44-1.57,0.88-3.14,1.21-4.75
				c-0.25-4.32,1.28-10.94-4.32-12.72c-8.4-0.76-16.03-1.01-24.93-1.01c-0.51,0-1.28,0.25-1.53,0.76c0.25,19.59,0,36.38,0.25,55.72
				c0,2.3-0.76,5.35,1.79,6.37c7.37-1.02,13.99,0.26,21.12-0.26c2.8,0,4.57,2.55,7.38,1.78c0.76-7.88,0.76-17.29,0.51-25.95
				c-0.24-0.71,0.1-2.41-1.02-2.7l0.03-1.63l4.37,0.53l0.45,1.46c-0.15,0.12-0.28,0.31-0.53,0.56l-0.51,26.21
				c0.26,0.76,0.26,2.8,1.78,2.53c7.88-4.58,17.56-1.52,26.72-2.53l2.04-0.76c1.01-4.33,0.5-19.85,0.5-19.85
				C375.83,73.07,375.58,61.63,375.58,49.42L375.58,49.42L375.58,49.42z"/>
			<path d="M346.07,78.16c1.02,1.53,1.78,3.06,1.53,5.09l-2.03,2.81l1.27,1.01c3.06-0.25,7.12,0.76,9.93-0.5
				c-0.77-1.53-2.55-2.04-3.57-3.06c-3.54-9.37-6.08-19.25-8.87-28.89l-3.09,1.42c-1.78,8.64-5.34,16.53-7.38,25.43
				c-0.5,1.78-2.28,2.03-3.56,3.05c-1.78,0.52-2.54-1.53-3.3-2.55c-0.25-7.63,0.76-13.99,0.26-22.14c-0.26-1.27,1.26-2.79,2.54-1.52
				c2.03,1.02,1.78,3.56,2.54,5.34c0.51,0.76,1.78,0.76,2.04-0.51l1.27-7.89c-1.02-2.55-3.31,0.26-5.34,0
				c-3.82-0.25-9.16,0.76-12.73-1.52c-3.05,1.02-2.29,5.34-2.8,8.14c-0.25,0.5,0,1.01,0.25,1.27c2.54-1.53,3.81-5.6,7.37-4.58
				l0.27,7.63l-0.76,16.54c-1.02,1.28-3.56,1.78-3.31,3.57c4.33,1.26,9.67,0,14.01,0.51c2.54,0.25,5.33,0.75,7.38,0
				c0.5-0.51,0.25-1.28-0.26-1.78c-1.53-0.76-3.3-2.04-2.8-4.08c0.76-1.26,1.01-3.82,3.3-3.05c0.56,0,0.8,0.31,0.95,0.69l3.63,0.44
				v-0.11C345.3,78.42,345.3,78.16,346.07,78.16L346.07,78.16L346.07,78.16z M340.73,74.6l-1.28-0.5c0.76-2.8,0-6.11,2.3-8.15
				c2.28,1.52,2.03,5.09,3.05,7.89C344.28,75.1,342,75.1,340.73,74.6L340.73,74.6L340.73,74.6z"/>
			<path d="M369.31,57.29c0,1.81,1.3,5.19-0.26,6.48c-1.82-1.56-2.07-3.1-4.92-3.88c-1.56,0-3.11,0.26-3.37,2.07
				c-0.52,5.45,4.92,5.44,8.03,9.07c2.85,2.86,4.15,7.52,2.85,11.17c-1.2,2.91-2.59,4.67-5.44,4.67c-2.6,0.52-4.41-1.3-6.5-0.27
				c-0.51,0-1.54,0.53-2.07-0.25l0.27-10.13c0.26-0.52,0.78-0.77,1.3-0.77c1.55,3.37,0.5,7.24,5.17,7.5c1.56-0.26,2.84-0.42,3.1-2.5
				c0.52-9.09-11.41-6.82-11.14-16.16c0.26-2.08,0.52-3.89,1.56-5.71c2.08-3.38,6.75-1.3,9.86-3.38
				C369.05,54.7,369.05,56.51,369.31,57.29L369.31,57.29L369.31,57.29L369.31,57.29z"/>
			<path d="M241.62,56.79c-2.55,1.28-5.35,3.31-4.59,6.87c-0.76,6.11-0.5,12.47-0.25,19.08l4.08,3.57l-0.25,0.51
				c-4.33,0-8.39,0.75-12.73,0c-1.78-2.04,2.3-3.06,3.06-4.58c0.76-7.13,1.53-14.51,0.76-22.4c-0.76-2.29-4.58-1.27-3.56-3.81
				c3.82-0.51,8.9-0.51,12.73,0L241.62,56.79L241.62,56.79L241.62,56.79z"/>
			<path d="M118.08,61.63c-2.54,3.05-3.05-2.8-5.6-3.06c-1.53-0.25-3.81-0.76-5.08,0.51c-0.51,3.3-1.02,6.36,0,9.41
				c1.02,0.76,3.06,0.51,4.33,0.51c1.53-1.02,2.29-3.82,4.32-3.56c1.27,1.27-0.51,3.31,0.25,4.58c-0.51,2.03,1.27,4.33-1.01,5.09
				c-1.53-0.76-2.3-3.57-4.33-3.57l-3.56,0.26c-1.27,4.57-0.76,8.65,0,12.97c2.04,2.04,4.57,0.25,6.87,0.25
				c3.3-0.76,2.54-5.34,5.34-4.84c0.76,1.78,1.02,4.58,0.51,6.62l-1.53,1.01l-18.06-0.26c-0.76-0.24-2.54-0.24-1.78-1.52
				c5.85-3.57,2.55-10.44,3.3-16.03c-0.76-4.07,2.29-10.18-3.05-12.72c-0.26-1.53,1.52-1.02,2.03-1.53c4.58,0,10.69,1.78,14.25-2.03
				C118.08,55.27,117.83,58.83,118.08,61.63L118.08,61.63L118.08,61.63L118.08,61.63z"/>
			<path d="M90.35,57.55c-5.09,4.08-5.34,11.2-7.63,17.05c-2.04,3.3-1.02,8.13-4.33,10.94c-1.27,0.51-2.29-0.76-2.55-1.78
				c-1.78-7.89-4.07-15.78-6.87-23.15c-0.26-2.29-5.6-2.8-2.55-4.58c3.81-0.51,6.61,0.51,10.18,0.25c0.76,2.29-2.8,3.56-1.78,6.36
				c2.29,3.31,1.53,8.39,4.33,11.71l1.26-1.28c0.26-5.85,6.87-11.19,1.28-16.28c1.27-2.29,5.08-0.76,7.63-1.52
				C89.84,55.77,91.63,56.28,90.35,57.55L90.35,57.55L90.35,57.55L90.35,57.55z"/>
			<path class="st1" d="M59.31,45.6c1.02,20.6-0.25,40.45,0.25,60.05c-0.25,1.02-1.27,2.29-2.55,2.29
				c-1.52-6.36-1.27-12.47-0.76-18.83C55.75,76.13,56,61.63,56,48.65C56.51,47.38,58.04,46.1,59.31,45.6L59.31,45.6L59.31,45.6
				L59.31,45.6z"/>
		</g>
		<line class="st5" x1="2063.16" y1="18.32" x2="2063.16" y2="499"/>
	</g>
	<g>
		<path class="st6" d="M2186.6,290.71c4.62-0.98,7.28-3.08,7.28-7.56v-71.4c0-4.48-2.66-6.58-7.28-7.56v-1.82
			c0.98,0,11.06,0.28,13.44,0.28c2.1,0,11.76-0.28,12.88-0.28v1.82c-4.48,1.26-7.42,2.94-7.42,7.56v71.4c0,4.62,2.94,6.3,7.42,7.56
			v1.82c-0.98,0-10.78-0.28-12.88-0.28c-2.38,0-12.32,0.28-13.44,0.28V290.71z"/>
		<path class="st6" d="M2287.82,287.49c0,0-2.94,1.54-5.88,3.5c-2.24,1.54-5.18,3.92-5.18,3.92c-1.96-1.82-4.34-4.9-5.74-8.82
			c-4.06,4.48-11.9,7.42-20.58,7.42c-14.28,0-24.22-13.72-24.22-29.4c0-16.52,10.5-30.94,26.18-30.94c7.14,0,13.3,2.52,17.5,7.14
			v-28c0-4.48-2.52-6.58-7.14-7.56v-1.54l16.24-6.44h1.54v83.44c0,4.48,1.4,5.6,3.08,5.6c0.98,0,2.52-0.14,3.22-0.56L2287.82,287.49
			z M2269.9,250.81c-0.98-7-8.12-11.34-15.82-11.34c-10.92,0-16.52,11.62-16.52,23.1c0,12.46,6.58,24.22,18.2,24.22
			c5.46,0,11.34-2.52,14.14-7.56V250.81z"/>
		<path class="st6" d="M2349.7,284.55c-3.08,3.64-9.38,8.96-20.44,8.96c-19.74,0-30.24-12.04-30.24-30.24
			c0-18.48,12.74-30.1,28-30.1c14.84,0,24.5,10.5,23.8,22.54c0,0.98-0.14,2.24-0.42,2.94h-39.76c-1.82,16.1,7.14,28.14,20.44,28.14
			c7.56,0,12.74-1.26,16.24-4.9L2349.7,284.55z M2339.48,253.89c0.98-7-3.5-15.68-12.32-15.68c-9.24,0-14.7,8.54-15.96,15.68
			H2339.48z"/>
		<path class="st6" d="M2365.1,290.85c2.94-1.26,6.16-2.8,6.16-5.46v-36.68c0-4.48-2.52-6.58-7.14-7.56v-1.54l15.68-6.44h1.54
			l0.56,9.1c5.04-4.76,11.34-9.1,20.02-9.1c12.04,0,19.04,7.7,19.04,17.08v35.14c0,2.8,2.94,4.06,6.3,5.46v1.68
			c-1.82,0-9.94-0.28-11.76-0.28c-1.82,0-9.66,0.28-11.34,0.28v-1.68c2.94-1.26,6.16-2.8,6.16-5.46v-27.3
			c0-9.94-3.92-17.78-13.86-17.78c-6.3,0-11.76,4.2-14.56,7.7v37.38c0,2.8,2.94,4.06,6.3,5.46v1.68c-1.82,0-9.94-0.28-11.76-0.28
			c-1.82,0-9.66,0.28-11.34,0.28V290.85z"/>
		<path class="st6" d="M2446.72,239.47h-8.68v-3.36l7.56-2.24c4.06-3.64,6.02-9.24,7.14-15.82h4.62v16.1h17.22v5.32h-17.22v35.84
			c0,7.42,2.38,9.94,6.72,9.94c4.2,0,6.86-2.1,8.68-4.06l2.24,2.1c-1.54,2.94-7,10.22-14.98,10.22c-6.72,0-13.3-3.22-13.3-16.38
			V239.47z"/>
		<path class="st6" d="M2489.98,290.85c2.94-1.26,6.16-2.8,6.16-5.46v-36.68c0-4.48-2.52-6.58-7.14-7.56v-1.54l16.24-6.44h1.54
			v52.22c0,2.8,2.94,4.06,6.3,5.46v1.68c-1.82,0-9.94-0.28-11.76-0.28c-1.82,0-9.66,0.28-11.34,0.28V290.85z M2501.04,210.07
			c3.36,0,6.3,2.94,6.3,6.16c0,3.36-2.94,6.16-6.3,6.16c-3.36,0-6.44-2.8-6.44-6.16C2494.6,213.01,2497.68,210.07,2501.04,210.07z"
			/>
		<path class="st6" d="M2534.78,239.47h-8.68v-3.36l7.56-2.24c4.06-3.64,6.02-9.24,7.14-15.82h4.62v16.1h17.22v5.32h-17.22v35.84
			c0,7.42,2.38,9.94,6.72,9.94c4.2,0,6.86-2.1,8.68-4.06l2.24,2.1c-1.54,2.94-7,10.22-14.98,10.22c-6.72,0-13.3-3.22-13.3-16.38
			V239.47z"/>
		<path class="st6" d="M2573.42,312.83c1.26,0.56,3.22,0.7,5.32,0.7c2.66,0,6.58-1.12,8.82-2.52c3.92-2.38,7.42-10.36,11.06-18.9
			l-21.56-49.14c-1.82-4.2-3.36-5.32-7-6.58v-1.68c1.82,0,8.96,0.28,10.78,0.28c1.82,0,9.38-0.28,11.2-0.28v1.68
			c-2.8,0.42-3.92,2.24-3.92,3.92c0,1.4,0.84,3.22,1.54,4.76l14.42,34.3l14.28-33.88c0.84-1.96,0.84-3.92,0.56-5.32
			c-0.42-1.82-1.68-3.22-4.48-3.78v-1.68c1.68,0,7.7,0.28,9.38,0.28s7.7-0.28,9.38-0.28v1.68c-3.78,1.4-6.16,3.5-8.12,8.12
			l-21,49.28c-7.98,18.62-12.6,26.46-30.24,26.46L2573.42,312.83z"/>
		<path class="st6" d="M2746.46,261.73c0-3.5-1.54-6.3-8.54-7.42v-1.82c1.68,0,10.92,0.28,13.3,0.28c2.1,0,8.96-0.28,10.78-0.28
			v1.82c-2.94,0.84-3.92,4.2-3.92,7.84v27.02c0,0-3.64,0.28-10.64,2.38c-3.92,1.12-11.2,2.38-20.02,2.38
			c-28.56,0-50.68-16.8-50.68-46.76c0-28.28,20.44-46.2,48.16-46.2c8.54,0,16.8,2.8,20.44,3.64c3.92,0.84,5.88,0.98,6.3,0.98
			l0.84,14.56h-1.82c-1.96-3.92-5.04-7-8.54-9.1c-4.9-2.94-9.94-4.48-16.66-4.48c-21.28,0-35.98,16.66-35.98,38.92
			c0,24.78,15.12,42.84,39.48,42.84c8.54,0,14.98-3.64,17.5-5.18V261.73z"/>
		<path class="st6" d="M2782.86,248.71c0-4.48-2.52-6.58-7.14-7.56v-1.54l16.24-6.44h1.54v35.42c0,9.94,2.1,17.78,12.04,17.78
			c6.3,0,11.76-4.2,14.56-7.7v-29.96c0-4.48-2.52-6.58-7.14-7.56v-1.54l16.24-6.44h1.54v47.04c0,4.48,1.4,5.6,3.08,5.6
			c0.98,0,2.52-0.14,3.22-0.56l0.98,2.24c0,0-2.94,1.54-5.88,3.5c-2.24,1.54-5.18,3.92-5.18,3.92c-1.96-1.82-5.74-5.6-6.44-10.78
			c-4.9,4.9-11.76,9.38-20.44,9.38c-12.04,0-17.22-7.7-17.22-17.08V248.71z"/>
		<path class="st6" d="M2853.41,290.85c2.94-1.26,6.16-2.8,6.16-5.46v-36.68c0-4.48-2.52-6.58-7.14-7.56v-1.54l16.24-6.44h1.54
			v52.22c0,2.8,2.94,4.06,6.3,5.46v1.68c-1.82,0-9.94-0.28-11.76-0.28c-1.82,0-9.66,0.28-11.34,0.28V290.85z M2864.47,210.07
			c3.36,0,6.3,2.94,6.3,6.16c0,3.36-2.94,6.16-6.3,6.16c-3.36,0-6.44-2.8-6.44-6.16C2858.03,213.01,2861.11,210.07,2864.47,210.07z"
			/>
		<path class="st6" d="M2951.13,287.49c0,0-2.94,1.54-5.88,3.5c-2.24,1.54-5.18,3.92-5.18,3.92c-1.96-1.82-4.34-4.9-5.74-8.82
			c-4.06,4.48-11.9,7.42-20.58,7.42c-14.28,0-24.22-13.72-24.22-29.4c0-16.52,10.5-30.94,26.18-30.94c7.14,0,13.3,2.52,17.5,7.14
			v-28c0-4.48-2.52-6.58-7.14-7.56v-1.54l16.24-6.44h1.54v83.44c0,4.48,1.4,5.6,3.08,5.6c0.98,0,2.52-0.14,3.22-0.56L2951.13,287.49
			z M2933.21,250.81c-0.98-7-8.12-11.34-15.82-11.34c-10.92,0-16.52,11.62-16.52,23.1c0,12.46,6.58,24.22,18.2,24.22
			c5.46,0,11.34-2.52,14.14-7.56V250.81z"/>
		<path class="st6" d="M3013.01,284.55c-3.08,3.64-9.38,8.96-20.44,8.96c-19.74,0-30.24-12.04-30.24-30.24
			c0-18.48,12.74-30.1,28-30.1c14.84,0,24.5,10.5,23.8,22.54c0,0.98-0.14,2.24-0.42,2.94h-39.76c-1.82,16.1,7.14,28.14,20.44,28.14
			c7.56,0,12.74-1.26,16.24-4.9L3013.01,284.55z M3002.79,253.89c0.98-7-3.5-15.68-12.32-15.68c-9.24,0-14.7,8.54-15.96,15.68
			H3002.79z"/>
	</g>
</g>
<g id="Layer_2">
</g>
</svg>
