<?xml version="1.0" encoding="UTF-8"?>
<svg xmlns="http://www.w3.org/2000/svg" width="301" height="72" viewBox="0 0 301 72" fill="none">
  <g clip-path="url(#clip0_2348_1997)">
    <path d="M27.0021 26.4245C27.7472 25.2101 28.6485 24.0666 29.7059 23.0162C36.9026 15.8672 48.5566 15.845 55.7846 22.9541L39.4458 6.72368C30.4198 -2.24253 15.7899 -2.24253 6.76829 6.72368C-1.2494 14.6882 -2.14174 27.0539 4.09126 35.9979C4.87206 34.881 5.7644 33.8129 6.76829 32.8156C12.274 27.3464 19.8679 25.2145 27.0021 26.4201V26.4245Z" fill="#F3901D"></path>
    <path d="M29.7063 48.9839C28.6488 47.9335 27.752 46.79 27.0025 45.58C19.8682 46.7856 12.2744 44.6537 6.76865 39.1845C5.76477 38.1872 4.87243 37.1191 4.09163 36.0022C-2.14584 44.9462 -1.2535 57.3119 6.76865 65.2809C15.7902 74.2426 30.4201 74.2426 39.4462 65.2809L55.7849 49.0504C48.5614 56.1551 36.9075 56.1374 29.7107 48.9883L29.7063 48.9839Z" fill="#75C7B9"></path>
    <path d="M27.0027 45.5799C23.3887 39.7207 23.3887 32.2835 27.0027 26.4243C19.8684 25.2187 12.2746 27.3506 6.76882 32.8198C5.76494 33.8171 4.8726 34.8808 4.0918 36.0021C4.8726 37.1234 5.76494 38.1871 6.76882 39.1844C12.2746 44.6536 19.8684 46.7855 27.0027 45.5799Z" fill="#7AC143"></path>
    <path d="M68.9155 35.9979L55.8471 23.0162C55.8471 23.0162 55.8025 22.9763 55.7847 22.9541L42.6494 36.0023L55.7847 49.0505C55.7847 49.0505 55.8293 49.0106 55.8516 48.9884L68.9199 36.0023L68.9155 35.9979Z" fill="#E31937"></path>
    <path d="M29.7057 23.0161C28.6483 24.0665 27.7471 25.21 27.002 26.4244C31.5574 27.1956 35.9254 29.3274 39.4457 32.8199L42.6492 36.0022L55.7844 22.954C48.5609 15.8449 36.9069 15.867 29.7057 23.0161Z" fill="#63619A"></path>
    <path d="M39.4457 39.1845C35.9298 42.677 31.5618 44.8089 27.002 45.5801C27.7471 46.79 28.6483 47.938 29.7057 48.984C36.9025 56.133 48.5564 56.1551 55.78 49.046L42.6447 35.9978L39.4412 39.1801L39.4457 39.1845Z" fill="#38939B"></path>
    <path d="M27.0025 26.4243C23.3885 32.2836 23.3885 39.7207 27.0025 45.58C31.5579 44.8088 35.9259 42.677 39.4462 39.1844L42.6497 36.0022L39.4462 32.8199C35.9304 29.3274 31.5623 27.1955 27.0025 26.4243Z" fill="#005695"></path>
    <path d="M79.6816 61.2388V50.6682H81.038V55.2377H84.768V50.6682H86.1243V61.2388H84.768V56.4078H81.038V61.2388H79.6816Z" fill="#231F20"></path>
    <path d="M88.3057 57.6488C88.3057 55.4815 88.5555 53.6953 91.1344 53.6953C93.7132 53.6953 93.9631 55.4815 93.9631 57.6488C93.9631 60.9153 92.7094 61.3806 91.1344 61.3806C89.5594 61.3806 88.3057 60.9108 88.3057 57.6488ZM92.7004 57.1346C92.7004 55.1136 92.0669 54.6748 91.1388 54.6748C90.2108 54.6748 89.5773 55.1136 89.5773 57.1346C89.5773 59.5369 89.8851 60.4011 91.1388 60.4011C92.3926 60.4011 92.7004 59.5369 92.7004 57.1346Z" fill="#231F20"></path>
    <path d="M98.2066 61.385C96.6003 61.385 95.5965 60.6847 95.6411 58.9828H97.0108C97.0108 59.4083 97.0242 60.4055 98.2467 60.4055C98.9695 60.4055 99.5317 60.0377 99.5317 59.2798C99.5317 57.9634 95.8151 57.9324 95.8151 55.7208C95.8151 54.9451 96.288 53.6997 98.3806 53.6997C99.7057 53.6997 100.843 54.3291 100.741 55.7917H99.3978C99.4112 55.016 99.0007 54.6039 98.2333 54.6039C97.5864 54.6039 97.0822 54.954 97.0822 55.6011C97.0822 56.9041 100.794 56.8775 100.794 59.1291C100.794 60.7557 99.6745 61.385 98.2021 61.385H98.2066Z" fill="#231F20"></path>
    <path d="M103.904 54.7235H103.935C104.346 54.0365 104.863 53.6997 105.644 53.6997C106.835 53.6997 108.044 54.1695 108.044 57.4183C108.044 59.262 107.986 61.385 105.582 61.385C104.872 61.385 104.359 61.0792 103.944 60.4897H103.9V64.0354H102.69V53.846H103.9V54.7235H103.904ZM106.777 57.4183C106.777 56.3058 106.777 54.6792 105.26 54.6792C103.743 54.6792 103.904 56.7268 103.904 57.857C103.904 58.8365 103.962 60.4055 105.305 60.4055C106.648 60.4055 106.777 59.395 106.777 57.4183Z" fill="#231F20"></path>
    <path d="M109.928 50.6638H111.284V51.9536H109.928V50.6638ZM111.208 61.2345H109.999V53.8417H111.208V61.2345Z" fill="#231F20"></path>
    <path d="M113.881 53.8416V52.4189L115.09 51.8782V53.8416H116.714V54.7502H115.09V59.2754C115.09 59.7452 115.09 60.3435 116.196 60.3435C116.286 60.3435 116.477 60.3125 116.741 60.2859V61.2078C116.344 61.2344 115.946 61.323 115.545 61.323C114.394 61.323 113.881 60.8532 113.881 60.0067V54.7502H112.658V53.8416H113.881Z" fill="#231F20"></path>
    <path d="M122.045 60.1706H122.014C121.648 61.0216 121.073 61.385 120.14 61.385C118.561 61.385 118.105 60.3745 118.105 58.9562C118.105 56.7136 120.318 56.6116 122.014 56.6559C122.045 55.6764 122.059 54.6083 120.76 54.6083C119.948 54.6083 119.52 55.149 119.596 55.9246H118.284C118.342 54.2715 119.23 53.6997 120.805 53.6997C122.723 53.6997 123.223 54.6792 123.223 55.9246V59.4836C123.223 60.0687 123.281 60.6715 123.37 61.2388H122.045V60.1706ZM119.319 59.0449C119.319 59.7629 119.672 60.4055 120.484 60.4055C121.22 60.4055 122.134 59.949 122.014 57.5645C120.863 57.5778 119.319 57.4759 119.319 59.0449Z" fill="#231F20"></path>
    <path d="M126.694 61.2388H125.485V50.6682H126.694V61.2388Z" fill="#231F20"></path>
    <path d="M136.51 60.1706H136.479C136.113 61.0216 135.538 61.385 134.61 61.385C133.03 61.385 132.575 60.3745 132.575 58.9562C132.575 56.7136 134.784 56.6116 136.479 56.6559C136.51 55.6764 136.524 54.6083 135.225 54.6083C134.413 54.6083 133.99 55.149 134.061 55.9246H132.749C132.807 54.2715 133.695 53.6997 135.27 53.6997C137.184 53.6997 137.688 54.6792 137.688 55.9246V59.4836C137.688 60.0687 137.746 60.6715 137.836 61.2388H136.51V60.1706ZM133.784 59.0449C133.784 59.7629 134.137 60.4055 134.949 60.4055C135.685 60.4055 136.6 59.949 136.479 57.5645C135.328 57.5778 133.784 57.4759 133.784 59.0449Z" fill="#231F20"></path>
    <path d="M143.993 61.2388V56.1152C143.993 55.3219 143.712 54.6792 142.681 54.6792C141.356 54.6792 141.164 55.8493 141.164 56.8598V61.2388H139.955V55.3839C139.955 54.8698 139.924 54.3601 139.879 53.846H141.159V54.7989H141.217C141.69 53.9656 142.248 53.6997 143.207 53.6997C144.8 53.6997 145.197 54.6526 145.197 56.1152V61.2388H143.988H143.993Z" fill="#231F20"></path>
    <path d="M151.328 50.6638H152.537V61.2345H151.328V60.3569H151.297C150.886 61.0439 150.369 61.3807 149.588 61.3807C148.392 61.3807 147.188 60.9109 147.188 57.6622C147.188 55.8184 147.245 53.6954 149.65 53.6954C150.36 53.6954 150.873 54.0012 151.288 54.5907H151.332V50.6638H151.328ZM149.927 54.6749C148.629 54.6749 148.455 55.6987 148.455 57.6755C148.455 58.7879 148.455 60.4012 149.972 60.4012C151.328 60.4012 151.328 58.7303 151.328 57.2367C151.328 56.2572 151.27 54.6749 149.927 54.6749Z" fill="#231F20"></path>
    <path d="M164.757 50.6638V51.8339H161.955V61.2345H160.599V51.8339H157.797V50.6638H164.757Z" fill="#231F20"></path>
    <path d="M166.332 54.954H166.363C166.863 53.8283 167.483 53.6953 168.661 53.6953V54.9407C168.443 54.9141 168.233 54.8698 168.014 54.8698C166.671 54.8698 166.332 55.8804 166.332 56.8776V61.2388H165.123V53.846H166.332V54.9585V54.954Z" fill="#231F20"></path>
    <path d="M173.993 60.1706H173.962C173.596 61.0216 173.02 61.385 172.092 61.385C170.513 61.385 170.058 60.3745 170.058 58.9562C170.058 56.7136 172.266 56.6116 173.962 56.6559C173.993 55.6764 174.006 54.6083 172.708 54.6083C171.896 54.6083 171.468 55.149 171.543 55.9246H170.227C170.285 54.2715 171.173 53.6997 172.748 53.6997C174.662 53.6997 175.166 54.6792 175.166 55.9246V59.4836C175.166 60.0687 175.224 60.6715 175.314 61.2388H173.988V60.1706H173.993ZM171.267 59.0449C171.267 59.7629 171.619 60.4055 172.431 60.4055C173.167 60.4055 174.082 59.949 173.962 57.5645C172.815 57.5778 171.267 57.4759 171.267 59.0449Z" fill="#231F20"></path>
    <path d="M181.368 53.8416H182.577V59.7008C182.577 60.2105 182.608 60.7247 182.648 61.2388H181.368V60.3435H181.323C180.926 61.0172 180.217 61.385 179.436 61.385C178.138 61.385 177.433 60.7424 177.433 59.4837V53.846H178.642V58.9695C178.642 59.8648 179.052 60.4632 179.909 60.4632C180.556 60.4632 181.368 59.9801 181.368 58.7479V53.8416Z" fill="#231F20"></path>
    <path d="M188.485 61.2388V56.1153C188.485 55.3662 188.28 54.6792 187.307 54.6792C186.937 54.6792 186.437 54.8964 186.258 55.1756C186.035 55.5391 185.977 55.9779 185.977 56.2571V61.2344H184.768V55.3795C184.768 54.8654 184.741 54.3557 184.692 53.8416H185.973V54.7635H186C186.352 53.9745 186.986 53.6953 187.856 53.6953C188.534 53.6953 189.315 53.9745 189.596 54.6482C190.006 53.8593 190.684 53.6953 191.363 53.6953C192.143 53.6953 193.397 53.8682 193.397 55.6144V61.2388H192.188V56.1153C192.188 55.3662 191.983 54.6792 191.01 54.6792C190.555 54.6792 190.421 54.6925 190.096 54.9585C189.743 55.251 189.685 55.9823 189.685 56.2615V61.2388H188.476H188.485Z" fill="#231F20"></path>
    <path d="M199.304 60.1706H199.273C198.907 61.0216 198.327 61.385 197.399 61.385C195.824 61.385 195.364 60.3745 195.364 58.9562C195.364 56.7136 197.577 56.6116 199.268 56.6559C199.299 55.6764 199.313 54.6083 198.015 54.6083C197.202 54.6083 196.779 55.149 196.85 55.9246H195.538C195.596 54.2715 196.484 53.6997 198.059 53.6997C199.973 53.6997 200.477 54.6792 200.477 55.9246V59.4836C200.477 60.0687 200.535 60.6715 200.625 61.2388H199.299V60.1706H199.304ZM196.578 59.0449C196.578 59.7629 196.93 60.4055 197.742 60.4055C198.479 60.4055 199.393 59.949 199.273 57.5645C198.122 57.5778 196.578 57.4759 196.578 59.0449Z" fill="#231F20"></path>
    <path d="M211.552 53.5801C211.565 52.9773 211.521 52.379 211.244 52.0421C210.963 51.7053 210.329 51.5856 210.048 51.5856C208.928 51.5856 208.487 52.2593 208.442 52.4056C208.397 52.5208 208.134 52.7867 208.134 54.6039V57.4316C208.134 60.0244 208.986 60.3302 210.035 60.3302C210.445 60.3302 211.699 60.184 211.717 58.1186H213.118C213.176 61.456 210.802 61.456 210.111 61.456C208.786 61.456 206.751 61.3674 206.751 57.2676V54.2804C206.751 51.2931 208.076 50.4421 210.173 50.4421C212.27 50.4421 213.091 51.528 212.957 53.5757H211.556L211.552 53.5801Z" fill="#231F20"></path>
    <path d="M216.33 57.928C216.33 59.9933 216.892 60.4055 217.834 60.4055C218.659 60.4055 219.087 59.7451 219.132 59.0005H220.457C220.444 60.6404 219.426 61.385 217.865 61.385C216.303 61.385 215.036 60.9152 215.036 57.6532C215.036 55.4859 215.286 53.6997 217.865 53.6997C219.989 53.6997 220.52 54.8565 220.52 57.303V57.9324H216.334L216.33 57.928ZM219.235 57.0194C219.235 54.8654 218.628 54.6039 217.744 54.6039C216.977 54.6039 216.343 54.9673 216.33 57.0194H219.235Z" fill="#231F20"></path>
    <path d="M226.565 61.2388V56.1152C226.565 55.3219 226.284 54.6792 225.254 54.6792C223.928 54.6792 223.737 55.8493 223.737 56.8598V61.2388H222.527V55.3839C222.527 54.8698 222.496 54.3601 222.456 53.846H223.737V54.7989H223.795C224.268 53.9656 224.825 53.6997 225.784 53.6997C227.377 53.6997 227.774 54.6526 227.774 56.1152V61.2388H226.565Z" fill="#231F20"></path>
    <path d="M230.402 53.8416V52.4189L231.611 51.8782V53.8416H233.235V54.7502H231.611V59.2754C231.611 59.7452 231.611 60.3435 232.718 60.3435C232.807 60.3435 232.999 60.3125 233.262 60.2859V61.2078C232.865 61.2344 232.464 61.323 232.066 61.323C230.915 61.323 230.402 60.8532 230.402 60.0067V54.7502H229.18V53.8416H230.402Z" fill="#231F20"></path>
    <path d="M235.788 57.928C235.788 59.9933 236.345 60.4055 237.291 60.4055C238.117 60.4055 238.545 59.7451 238.59 59.0005H239.915C239.901 60.6404 238.884 61.385 237.318 61.385C235.752 61.385 234.489 60.9152 234.489 57.6532C234.489 55.4859 234.739 53.6997 237.318 53.6997C239.442 53.6997 239.973 54.8565 239.973 57.303V57.9324H235.788V57.928ZM238.692 57.0194C238.692 54.8654 238.09 54.6039 237.202 54.6039C236.435 54.6039 235.801 54.9673 235.788 57.0194H238.692Z" fill="#231F20"></path>
    <path d="M243.23 54.954H243.257C243.757 53.8283 244.377 53.6953 245.555 53.6953V54.9407C245.332 54.9141 245.126 54.8698 244.903 54.8698C243.56 54.8698 243.226 55.8804 243.226 56.8776V61.2388H242.017V53.846H243.226V54.9585L243.23 54.954Z" fill="#231F20"></path>
    <path d="M87.998 11.6699L81.06 22.2538H88.1497V23.7917H79.4092V21.7884L86.191 11.4704V11.4305H79.6412V9.89258H87.9935V11.6654L87.998 11.6699Z" fill="#38939B"></path>
    <path d="M90.7598 9.90137H92.5444V18.7922C92.5444 21.8327 93.4725 22.6039 95.159 22.6039C96.8455 22.6039 97.7736 21.8327 97.7736 18.7922V9.90137H99.5582V18.7169C99.5582 22.5684 98.126 24.0886 95.159 24.0886C92.192 24.0886 90.7598 22.5684 90.7598 18.7169V9.90137Z" fill="#38939B"></path>
    <path d="M109.035 13.7308C109.053 12.9419 108.995 12.153 108.629 11.7098C108.263 11.2665 107.429 11.1114 107.058 11.1114C105.586 11.1114 105.006 11.9978 104.948 12.1884C104.89 12.3436 104.542 12.6893 104.542 15.0737V18.7879C104.542 22.1962 105.666 22.5995 107.041 22.5995C107.585 22.5995 109.231 22.4045 109.249 19.692H111.092C111.168 24.0798 108.049 24.0798 107.139 24.0798C105.394 24.0798 102.722 23.9646 102.722 18.5751V14.6483C102.722 10.7214 104.466 9.60449 107.219 9.60449C109.972 9.60449 111.056 11.0272 110.882 13.7219H109.039L109.035 13.7308Z" fill="#38939B"></path>
    <path d="M114.041 23.7961V9.90137H115.826V16.0044H115.884L120.765 9.90137H122.781L117.704 16.1773L123.072 23.8005H120.787L115.884 16.5451H115.826V23.8005H114.041V23.7961Z" fill="#38939B"></path>
    <path d="M125.642 23.7961V9.90137H132.847V11.4393H127.422V15.9025H132.459V17.4404H127.422V22.2537H132.963V23.7917H125.642V23.7961Z" fill="#38939B"></path>
    <path d="M137.59 17.405V23.7961H135.806V9.90137H140.629C143.109 9.90137 143.98 11.6343 143.98 13.3673C143.98 15.0028 143.069 16.2526 141.423 16.5451V16.585C143.029 16.8377 143.614 17.3739 143.707 20.1662C143.725 20.7645 143.921 22.9363 144.194 23.805H142.333C141.829 22.8432 141.945 21.0349 141.789 19.1867C141.655 17.4936 140.276 17.4138 139.678 17.4138H137.586L137.59 17.405ZM137.59 15.867H140.263C141.543 15.867 142.164 14.7678 142.164 13.5579C142.164 12.5562 141.659 11.4393 140.285 11.4393H137.59V15.867Z" fill="#38939B"></path>
    <path d="M147.169 23.7961V9.90137H151.724C153.661 9.90137 154.321 10.5573 154.843 11.3241C155.329 12.0731 155.405 12.9019 155.405 13.1723C155.405 14.9052 154.803 16.0576 153.005 16.4654V16.5629C154.999 16.7933 155.874 17.9856 155.874 19.8914C155.874 23.4504 153.259 23.7961 151.671 23.7961H147.173H147.169ZM148.954 15.7518H151.55C152.947 15.7341 153.625 14.8875 153.625 13.5401C153.625 12.3834 152.965 11.4437 151.474 11.4437H148.954V15.7562V15.7518ZM148.954 22.2582H151.474C153.375 22.2582 154.053 20.9108 154.053 19.8914C154.053 17.6798 152.679 17.2942 150.854 17.2942H148.954V22.2582Z" fill="#38939B"></path>
    <path d="M159.02 23.7961V9.90137H166.226V11.4393H160.8V15.9025H165.838V17.4404H160.8V22.2537H166.342V23.7917H159.016L159.02 23.7961Z" fill="#38939B"></path>
    <path d="M170.968 17.405V23.7961H169.184V9.90137H174.007C176.487 9.90137 177.357 11.6343 177.357 13.3673C177.357 15.0028 176.447 16.2526 174.801 16.5451V16.585C176.407 16.8377 176.992 17.3739 177.085 20.1662C177.103 20.7645 177.299 22.9363 177.572 23.805H175.711C175.207 22.8432 175.323 21.0349 175.167 19.1867C175.033 17.4936 173.654 17.4138 173.056 17.4138H170.964L170.968 17.405ZM170.968 15.867H173.641C174.921 15.867 175.542 14.7678 175.542 13.5579C175.542 12.5562 175.037 11.4393 173.663 11.4393H170.968V15.867Z" fill="#38939B"></path>
    <path d="M187.151 13.6155C187.151 11.98 186.473 11.0936 184.67 11.0936C184.108 11.0936 182.091 11.1911 182.091 14.0942V18.7922C182.091 21.8327 182.984 22.6039 184.67 22.6039C185.951 22.6039 186.803 22.2582 187.169 21.9878V17.8305H184.59V16.2925H188.949V23.0471C187.807 23.6631 186.468 24.0886 184.666 24.0886C181.703 24.0886 180.267 22.5684 180.267 18.7169V14.1562C180.267 11.3861 181.699 9.61328 184.666 9.61328C187.633 9.61328 189.123 10.7124 189.007 13.6155H187.147H187.151Z" fill="#38939B"></path>
    <path d="M80.7034 40.0442V40.4476C80.7034 42.3356 81.9036 42.9295 83.0458 42.9295C84.4602 42.9295 85.5444 42.3312 85.5444 40.678C85.5444 37.5977 79.2667 37.9434 79.2667 33.7683C79.2667 31.3041 81.0291 29.9966 83.376 29.9966C85.9325 29.9966 87.3692 31.2287 87.2487 34.0564H85.3882C85.406 32.5362 84.9242 31.5345 83.2377 31.5345C82.1713 31.5345 81.0871 32.0753 81.0871 33.5733C81.0871 36.6315 87.3647 36.1927 87.3647 40.5982C87.3647 43.5235 85.3302 44.4675 83.0235 44.4675C78.8964 44.5074 78.8964 41.3694 78.9366 40.0398H80.6989L80.7034 40.0442Z" fill="#38939B"></path>
    <path d="M93.8476 30.2893H96.1141L100.67 44.184H98.6752L97.6668 40.8732H92.2592L91.2107 44.184H89.4082L93.8431 30.2893H93.8476ZM94.9318 31.9248H94.8916L92.7009 39.3353H97.176L94.9273 31.9248H94.9318Z" fill="#38939B"></path>
    <path d="M112.939 30.2893V44.184H110.499L104.975 32.1375H104.935V44.184H103.347V30.2893H105.868L111.311 42.1852H111.351V30.2893H112.939Z" fill="#38939B"></path>
    <path d="M121.157 44.184V30.2893H128.095V31.8273H122.942V36.2904H127.823V37.8284H122.942V44.1796H121.157V44.184Z" fill="#38939B"></path>
    <path d="M132.455 37.7929V44.184H130.67V30.2893H135.493C137.974 30.2893 138.844 32.0223 138.844 33.7552C138.844 35.3907 137.934 36.6406 136.287 36.9331V36.973C137.893 37.2256 138.478 37.7619 138.572 40.5541C138.589 41.1525 138.786 43.3242 139.058 44.1929H137.197C136.693 43.2311 136.809 41.4228 136.653 39.5746C136.519 37.8816 135.141 37.8018 134.543 37.8018H132.45L132.455 37.7929ZM132.455 36.255H135.127C136.408 36.255 137.028 35.1558 137.028 33.9458C137.028 32.9442 136.524 31.8273 135.149 31.8273H132.455V36.255Z" fill="#38939B"></path>
    <path d="M145.782 30.2893H148.049L152.604 44.184H150.61L149.601 40.8732H144.194L143.145 44.184H141.343L145.778 30.2893H145.782ZM146.866 31.9248H146.826L144.636 39.3353H149.111L146.862 31.9248H146.866Z" fill="#38939B"></path>
    <path d="M164.873 30.2893V44.184H162.432L156.909 32.1375H156.869V44.184H155.28V30.2893H157.801L163.244 42.1852H163.285V30.2893H164.873Z" fill="#38939B"></path>
    <path d="M174.466 34.1185C174.484 33.3296 174.426 32.5407 174.06 32.0975C173.694 31.6542 172.86 31.4991 172.49 31.4991C171.017 31.4991 170.437 32.3855 170.379 32.5761C170.321 32.7312 169.973 33.077 169.973 35.4614V39.1756C169.973 42.5839 171.098 42.9872 172.472 42.9872C173.016 42.9872 174.663 42.7922 174.68 40.0797H176.519C176.594 44.4675 173.476 44.4675 172.566 44.4675C170.821 44.4675 168.148 44.3523 168.148 38.9628V35.036C168.148 31.1091 169.893 29.9922 172.641 29.9922C175.39 29.9922 176.478 31.4149 176.304 34.1096H174.462L174.466 34.1185Z" fill="#38939B"></path>
    <path d="M181.368 44.184H179.588V30.2893H181.368V44.184Z" fill="#38939B"></path>
    <path d="M186.258 40.0442V40.4476C186.258 42.3356 187.458 42.9295 188.605 42.9295C190.019 42.9295 191.103 42.3312 191.103 40.678C191.103 37.5977 184.826 37.9434 184.826 33.7683C184.826 31.3041 186.588 29.9966 188.935 29.9966C191.492 29.9966 192.928 31.2287 192.812 34.0564H190.952C190.97 32.5362 190.488 31.5345 188.801 31.5345C187.735 31.5345 186.651 32.0753 186.651 33.5733C186.651 36.6315 192.928 36.1927 192.928 40.5982C192.928 43.5235 190.894 44.4675 188.587 44.4675C184.46 44.5074 184.46 41.3694 184.5 40.0398H186.262L186.258 40.0442Z" fill="#38939B"></path>
    <path d="M202.191 34.1185C202.209 33.3296 202.151 32.5407 201.785 32.0975C201.415 31.6542 200.585 31.4991 200.215 31.4991C198.742 31.4991 198.162 32.3855 198.104 32.5761C198.046 32.7312 197.698 33.077 197.698 35.4614V39.1756C197.698 42.5839 198.823 42.9872 200.197 42.9872C200.737 42.9872 202.388 42.7922 202.405 40.0797H204.248C204.324 44.4675 201.205 44.4675 200.295 44.4675C198.551 44.4675 195.878 44.3523 195.878 38.9628V35.036C195.878 31.1091 197.622 29.9922 200.375 29.9922C203.128 29.9922 204.212 31.4149 204.038 34.1096H202.2L202.191 34.1185Z" fill="#38939B"></path>
    <path d="M207.161 39.1048V34.5442C207.161 31.7741 208.593 30.0012 211.56 30.0012C214.527 30.0012 215.96 31.7741 215.96 34.5442V39.1048C215.96 42.9563 214.527 44.4766 211.56 44.4766C208.593 44.4766 207.161 42.9563 207.161 39.1048ZM214.135 39.1802V34.4821C214.135 31.5746 212.118 31.4816 211.556 31.4816C210.994 31.4816 208.977 31.5791 208.977 34.4821V39.1802C208.977 42.2206 209.869 42.9918 211.556 42.9918C213.242 42.9918 214.135 42.2206 214.135 39.1802Z" fill="#38939B"></path>
    <path d="M230.88 34.0034C230.88 32.368 230.201 31.4816 228.399 31.4816C227.837 31.4816 225.82 31.5791 225.82 34.4821V39.1802C225.82 42.2206 226.712 42.9918 228.399 42.9918C229.679 42.9918 230.532 42.6461 230.897 42.3757V38.2184H228.319V36.6804H232.678V43.435C231.535 44.0511 230.197 44.4766 228.394 44.4766C225.432 44.4766 223.995 42.9563 223.995 39.1048V34.5442C223.995 31.7741 225.427 30.0012 228.394 30.0012C231.361 30.0012 232.852 31.1004 232.736 34.0034H230.875H230.88Z" fill="#38939B"></path>
    <path d="M236.096 44.184V30.2893H243.301V31.8273H237.876V36.2904H242.913V37.8284H237.876V42.6417H243.417V44.1796H236.096V44.184Z" fill="#38939B"></path>
    <path d="M255.919 30.2893V44.184H253.479L247.96 32.1375H247.919V44.184H246.331V30.2893H248.847L254.291 42.1852H254.331V30.2893H255.919Z" fill="#38939B"></path>
    <path d="M259.35 44.184V30.2893H266.556V31.8273H261.13V36.2904H266.168V37.8284H261.13V42.6417H266.672V44.1796H259.346L259.35 44.184Z" fill="#38939B"></path>
    <path d="M271.303 37.7929V44.184H269.519V30.2893H274.342C276.822 30.2893 277.692 32.0223 277.692 33.7552C277.692 35.3907 276.782 36.6406 275.136 36.9331V36.973C276.747 37.2256 277.327 37.7619 277.42 40.5541C277.438 41.1525 277.634 43.3242 277.907 44.1929H276.046C275.542 43.2311 275.658 41.4228 275.506 39.5746C275.372 37.8816 273.994 37.8018 273.396 37.8018H271.303V37.7929ZM271.303 36.255H273.976C275.256 36.255 275.876 35.1558 275.876 33.9458C275.876 32.9442 275.372 31.8273 273.998 31.8273H271.303V36.255Z" fill="#38939B"></path>
    <path d="M284.63 30.2893H286.896L291.452 44.184H289.457L288.449 40.8732H283.041L281.993 44.184H280.19L284.63 30.2893ZM285.714 31.9248H285.674L283.483 39.3353H287.958L285.71 31.9248H285.714Z" fill="#38939B"></path>
    <path d="M294.084 44.184V30.2893H295.864V42.6461H301V44.184H294.084Z" fill="#38939B"></path>
  </g>
  <defs>
    <clipPath id="clip0_2348_1997">
      <rect width="301" height="72" fill="white"></rect>
    </clipPath>
  </defs>
</svg>
